<svg xmlns="http://www.w3.org/2000/svg" width="160" height="160" viewBox="0 0 160 160" version="1.1"><path d="M 40 15 L 40 20 35 20 L 30 20 30 25 L 30 30 25 30 L 20 30 20 35 L 20 40 15 40 L 10 40 10 80 L 10 120 15 120 L 20 120 20 130 L 20 140 25 140 L 30 140 30 145 L 30 150 35 150 L 40 150 40 155 L 40 160 80 160 L 120 160 120 155 L 120 150 125 150 L 130 150 130 145 L 130 140 135 140 L 140 140 140 130 L 140 120 145 120 L 150 120 150 115 L 150 110 145 110 L 140 110 140 115 L 140 120 130 120 L 120 120 120 125 L 120 130 105 130 L 90 130 90 125 L 90 120 80 120 L 70 120 70 125 L 70 130 55 130 L 40 130 40 125 L 40 120 30 120 L 20 120 20 90 L 20 60 25 60 L 30 60 30 55 L 30 50 45 50 L 60 50 60 70 L 60 90 65 90 L 70 90 70 85 L 70 80 75 80 L 80 80 80 70 L 80 60 85 60 L 90 60 90 55 L 90 50 110 50 L 130 50 130 55 L 130 60 140 60 L 150 60 150 50 L 150 40 145 40 L 140 40 140 35 L 140 30 135 30 L 130 30 130 25 L 130 20 125 20 L 120 20 120 15 L 120 10 80 10 L 40 10 40 15 M 140 85 L 140 90 145 90 L 150 90 150 85 L 150 80 145 80 L 140 80 140 85 M 70 135 L 70 140 65 140 L 60 140 60 145 L 60 150 80 150 L 100 150 100 145 L 100 140 95 140 L 90 140 90 135 L 90 130 80 130 L 70 130 70 135" stroke="none" fill="#2d1802" fill-rule="evenodd"/><path d="M 30 55 L 30 60 25 60 L 20 60 20 65 L 20 70 40 70 L 60 70 60 60 L 60 50 45 50 L 30 50 30 55 M 90 55 L 90 60 85 60 L 80 60 80 65 L 80 70 110 70 L 140 70 140 75 L 140 80 145 80 L 150 80 150 85 L 150 90 145 90 L 140 90 140 100 L 140 110 145 110 L 150 110 150 115 L 150 120 155 120 L 160 120 160 115 L 160 110 155 110 L 150 110 150 100 L 150 90 155 90 L 160 90 160 85 L 160 80 155 80 L 150 80 150 70 L 150 60 140 60 L 130 60 130 55 L 130 50 110 50 L 90 50 90 55" stroke="none" fill="#5d0101" fill-rule="evenodd"/><path d="M 20 95 L 20 120 30 120 L 40 120 40 125 L 40 130 55 130 L 70 130 70 135 L 70 140 65 140 L 60 140 60 145 L 60 150 80 150 L 100 150 100 145 L 100 140 95 140 L 90 140 90 135 L 90 130 105 130 L 120 130 120 125 L 120 120 130 120 L 140 120 140 95 L 140 70 135 70 L 130 70 130 75 L 130 80 120 80 L 110 80 110 75 L 110 70 95 70 L 80 70 80 75 L 80 80 75 80 L 70 80 70 85 L 70 90 65 90 L 60 90 60 80 L 60 70 55 70 L 50 70 50 75 L 50 80 40 80 L 30 80 30 75 L 30 70 25 70 L 20 70 20 95 M 40 100 L 40 110 45 110 L 50 110 50 100 L 50 90 45 90 L 40 90 40 100 M 110 100 L 110 110 115 110 L 120 110 120 100 L 120 90 115 90 L 110 90 110 100 M 70 120 L 70 130 80 130 L 90 130 90 120 L 90 110 80 110 L 70 110 70 120" stroke="none" fill="#f1c6c6" fill-rule="evenodd"/><path d="M 70 115 L 70 120 80 120 L 90 120 90 115 L 90 110 80 110 L 70 110 70 115" stroke="none" fill="#b79393" fill-rule="evenodd"/><path d="M 30 75 L 30 80 40 80 L 50 80 50 75 L 50 70 40 70 L 30 70 30 75 M 110 75 L 110 80 120 80 L 130 80 130 75 L 130 70 120 70 L 110 70 110 75" stroke="none" fill="#171717" fill-rule="evenodd"/><path d="M 40 100 L 40 110 45 110 L 50 110 50 100 L 50 90 45 90 L 40 90 40 100 M 110 100 L 110 110 115 110 L 120 110 120 100 L 120 90 115 90 L 110 90 110 100" stroke="none" fill="#4e733d" fill-rule="evenodd"/></svg>