<svg xmlns="http://www.w3.org/2000/svg" width="160" height="160" viewBox="0 0 160 160" version="1.1"><path d="M 60 5 L 60 10 45 10 L 30 10 30 15 L 30 20 25 20 L 20 20 20 30 L 20 40 15 40 L 10 40 10 45 L 10 50 5 50 L 0 50 0 90 L 0 130 5 130 L 10 130 10 140 L 10 150 30 150 L 50 150 50 155 L 50 160 85 160 L 120 160 120 155 L 120 150 130 150 L 140 150 140 145 L 140 140 149.852 140 L 159.704 140 160.346 131.750 C 161.177 121.074, 161.179 55.543, 160.348 46.750 L 159.711 40 154.855 40 L 150 40 150 35 L 150 30 145 30 L 140 30 140 25 L 140 20 130 20 L 120 20 120 15 L 120 10 105 10 L 90 10 90 5 L 90 0 75 0 L 60 0 60 5 M 60 15 L 60 20 45 20 L 30 20 30 30 L 30 40 25 40 L 20 40 20 45 L 20 50 15 50 L 10 50 10 90 L 10 130 15 130 L 20 130 20 135 L 20 140 40 140 L 60 140 60 145 L 60 150 90 150 L 120 150 120 145 L 120 140 130 140 L 140 140 140 135 L 140 130 145 130 L 150 130 150 85 L 150 40 145 40 L 140 40 140 35 L 140 30 130 30 L 120 30 120 25 L 120 20 105 20 L 90 20 90 15 L 90 10 75 10 L 60 10 60 15 M 0.456 90 C 0.456 112.275, 0.588 121.388, 0.749 110.250 C 0.910 99.113, 0.910 80.888, 0.749 69.750 C 0.588 58.613, 0.456 67.725, 0.456 90" stroke="none" fill="#333123" fill-rule="evenodd"/><path d="M 50 75 L 50 80 45 80 L 40 80 40 85 L 40 90 35 90 L 30 90 30 95 L 30 100 45 100 L 60 100 60 95 L 60 90 65 90 L 70 90 70 80 L 70 70 60 70 L 50 70 50 75 M 120 75 L 120 80 115 80 L 110 80 110 85 L 110 90 105 90 L 100 90 100 95 L 100 100 115 100 L 130 100 130 95 L 130 90 135 90 L 140 90 140 80 L 140 70 130 70 L 120 70 120 75" stroke="none" fill="#686d67" fill-rule="evenodd"/><path d="M 70 20 L 70 30 75 30 L 80 30 80 35 L 80 40 85 40 L 90 40 90 35 L 90 30 85 30 L 80 30 80 20 L 80 10 75 10 L 70 10 70 20 M 70 135 L 70 140 65 140 L 60 140 60 145 L 60 150 65 150 L 70 150 70 145 L 70 140 75 140 L 80 140 80 135 L 80 130 75 130 L 70 130 70 135" stroke="none" fill="#7c7a7b" fill-rule="evenodd"/><path d="M 60 15 L 60 20 45 20 L 30 20 30 30 L 30 40 25 40 L 20 40 20 45 L 20 50 15 50 L 10 50 10 65 L 10 80 15 80 L 20 80 20 75 L 20 70 25 70 L 30 70 30 60 L 30 50 35 50 L 40 50 40 45 L 40 40 45 40 L 50 40 50 35 L 50 30 60 30 L 70 30 70 20 L 70 10 65 10 L 60 10 60 15 M 80 20 L 80 30 90 30 L 100 30 100 35 L 100 40 105 40 L 110 40 110 45 L 110 50 125 50 L 140 50 140 55 L 140 60 145 60 L 150 60 150 50 L 150 40 145 40 L 140 40 140 35 L 140 30 130 30 L 120 30 120 25 L 120 20 105 20 L 90 20 90 15 L 90 10 85 10 L 80 10 80 20 M 70 55 L 70 60 75 60 L 80 60 80 55 L 80 50 75 50 L 70 50 70 55 M 90 55 L 90 60 95 60 L 100 60 100 55 L 100 50 95 50 L 90 50 90 55 M 10 115 L 10 130 15 130 L 20 130 20 135 L 20 140 45 140 L 70 140 70 135 L 70 130 75 130 L 80 130 80 140 L 80 150 100 150 L 120 150 120 145 L 120 140 130 140 L 140 140 140 135 L 140 130 145 130 L 150 130 150 115 L 150 100 145 100 L 140 100 140 105 L 140 110 135 110 L 130 110 130 120 L 130 130 125 130 L 120 130 120 125 L 120 120 110 120 L 100 120 100 115 L 100 110 95 110 L 90 110 90 120 L 90 130 85 130 L 80 130 80 125 L 80 120 50 120 L 20 120 20 110 L 20 100 15 100 L 10 100 10 115" stroke="none" fill="#717171" fill-rule="evenodd"/><path d="M 50 35 L 50 40 45 40 L 40 40 40 45 L 40 50 60 50 L 80 50 80 60 L 80 70 85 70 L 90 70 90 60 L 90 50 100 50 L 110 50 110 45 L 110 40 105 40 L 100 40 100 35 L 100 30 95 30 L 90 30 90 35 L 90 40 85 40 L 80 40 80 35 L 80 30 65 30 L 50 30 50 35 M 20 110 L 20 120 25 120 L 30 120 30 110 L 30 100 25 100 L 20 100 20 110 M 80 105 L 80 110 70 110 L 60 110 60 115 L 60 120 70 120 L 80 120 80 125 L 80 130 85 130 L 90 130 90 115 L 90 100 85 100 L 80 100 80 105 M 120 125 L 120 130 125 130 L 130 130 130 125 L 130 120 125 120 L 120 120 120 125 M 70 145 L 70 150 75 150 L 80 150 80 145 L 80 140 75 140 L 70 140 70 145" stroke="none" fill="#777675" fill-rule="evenodd"/><path d="M 50 35 L 50 40 45 40 L 40 40 40 45 L 40 50 60 50 L 80 50 80 60 L 80 70 85 70 L 90 70 90 60 L 90 50 100 50 L 110 50 110 45 L 110 40 105 40 L 100 40 100 35 L 100 30 95 30 L 90 30 90 35 L 90 40 85 40 L 80 40 80 35 L 80 30 65 30 L 50 30 50 35 M 20 110 L 20 120 25 120 L 30 120 30 110 L 30 100 25 100 L 20 100 20 110 M 80 105 L 80 110 70 110 L 60 110 60 115 L 60 120 70 120 L 80 120 80 125 L 80 130 85 130 L 90 130 90 115 L 90 100 85 100 L 80 100 80 105 M 120 125 L 120 130 125 130 L 130 130 130 125 L 130 120 125 120 L 120 120 120 125 M 70 145 L 70 150 75 150 L 80 150 80 145 L 80 140 75 140 L 70 140 70 145" stroke="none" fill="#777675" fill-rule="evenodd"/><path d="M 30 55 L 30 60 50 60 L 70 60 70 65 L 70 70 75 70 L 80 70 80 75 L 80 80 85 80 L 90 80 90 75 L 90 70 95 70 L 100 70 100 65 L 100 60 120 60 L 140 60 140 65 L 140 70 145 70 L 150 70 150 65 L 150 60 145 60 L 140 60 140 55 L 140 50 120 50 L 100 50 100 55 L 100 60 95 60 L 90 60 90 65 L 90 70 85 70 L 80 70 80 65 L 80 60 75 60 L 70 60 70 55 L 70 50 50 50 L 30 50 30 55 M 10 90 L 10 100 15 100 L 20 100 20 90 L 20 80 15 80 L 10 80 10 90 M 140 95 L 140 100 145 100 L 150 100 150 95 L 150 90 145 90 L 140 90 140 95 M 70 105 L 70 110 75 110 L 80 110 80 105 L 80 100 75 100 L 70 100 70 105 M 90 105 L 90 110 95 110 L 100 110 100 115 L 100 120 115 120 L 130 120 130 115 L 130 110 115 110 L 100 110 100 105 L 100 100 95 100 L 90 100 90 105 M 30 115 L 30 120 45 120 L 60 120 60 115 L 60 110 45 110 L 30 110 30 115" stroke="none" fill="#f2cb9a" fill-rule="evenodd"/><path d="M 30 65 L 30 70 25 70 L 20 70 20 85 L 20 100 25 100 L 30 100 30 105 L 30 110 50 110 L 70 110 70 105 L 70 100 85 100 L 100 100 100 105 L 100 110 120 110 L 140 110 140 100 L 140 90 145 90 L 150 90 150 80 L 150 70 145 70 L 140 70 140 65 L 140 60 120 60 L 100 60 100 65 L 100 70 95 70 L 90 70 90 75 L 90 80 85 80 L 80 80 80 75 L 80 70 75 70 L 70 70 70 65 L 70 60 50 60 L 30 60 30 65 M 30 85 L 30 100 45 100 L 60 100 60 95 L 60 90 65 90 L 70 90 70 80 L 70 70 50 70 L 30 70 30 85 M 100 85 L 100 100 115 100 L 130 100 130 95 L 130 90 135 90 L 140 90 140 80 L 140 70 120 70 L 100 70 100 85" stroke="none" fill="#171717" fill-rule="evenodd"/><path d="M 30 80 L 30 90 35 90 L 40 90 40 85 L 40 80 45 80 L 50 80 50 75 L 50 70 40 70 L 30 70 30 80 M 100 80 L 100 90 105 90 L 110 90 110 85 L 110 80 115 80 L 120 80 120 75 L 120 70 110 70 L 100 70 100 80" stroke="none" fill="#b4b4b4" fill-rule="evenodd"/></svg>