<svg xmlns="http://www.w3.org/2000/svg" width="160" height="160" viewBox="0 0 160 160" version="1.1"><path d="M 40 25 L 40 30 35 30 L 30 30 30 35 L 30 40 35 40 L 40 40 40 35 L 40 30 45 30 L 50 30 50 25 L 50 20 45 20 L 40 20 40 25 M 110 25 L 110 30 115 30 L 120 30 120 35 L 120 40 125 40 L 130 40 130 35 L 130 30 125 30 L 120 30 120 25 L 120 20 115 20 L 110 20 110 25 M 60 35 L 60 40 55 40 L 50 40 50 45 L 50 50 45 50 L 40 50 40 55 L 40 60 45 60 L 50 60 50 65 L 50 70 45 70 L 40 70 40 75 L 40 80 50 80 L 60 80 60 85 L 60 90 55 90 L 50 90 50 95 L 50 100 60 100 L 70 100 70 105 L 70 110 80 110 L 90 110 90 105 L 90 100 100 100 L 110 100 110 95 L 110 90 105 90 L 100 90 100 85 L 100 80 110 80 L 120 80 120 75 L 120 70 115 70 L 110 70 110 65 L 110 60 115 60 L 120 60 120 55 L 120 50 115 50 L 110 50 110 45 L 110 40 105 40 L 100 40 100 35 L 100 30 95 30 L 90 30 90 35 L 90 40 80 40 L 70 40 70 35 L 70 30 65 30 L 60 30 60 35 M 60 60 L 60 70 65 70 L 70 70 70 80 L 70 90 80 90 L 90 90 90 80 L 90 70 95 70 L 100 70 100 60 L 100 50 95 50 L 90 50 90 60 L 90 70 80 70 L 70 70 70 60 L 70 50 65 50 L 60 50 60 60" stroke="none" fill="#e9e9e9" fill-rule="evenodd"/><path d="M 60 60 L 60 70 65 70 L 70 70 70 60 L 70 50 65 50 L 60 50 60 60 M 90 60 L 90 70 95 70 L 100 70 100 60 L 100 50 95 50 L 90 50 90 60" stroke="none" fill="#a07500" fill-rule="evenodd"/><path d="M 70 25 L 70 40 80 40 L 90 40 90 25 L 90 10 80 10 L 70 10 70 25 M 30 25 L 30 30 35 30 L 40 30 40 40 L 40 50 45 50 L 50 50 50 45 L 50 40 55 40 L 60 40 60 35 L 60 30 50 30 L 40 30 40 25 L 40 20 35 20 L 30 20 30 25 M 120 25 L 120 30 110 30 L 100 30 100 35 L 100 40 105 40 L 110 40 110 45 L 110 50 115 50 L 120 50 120 40 L 120 30 125 30 L 130 30 130 25 L 130 20 125 20 L 120 20 120 25 M 40 65 L 40 70 45 70 L 50 70 50 65 L 50 60 45 60 L 40 60 40 65 M 110 65 L 110 70 115 70 L 120 70 120 65 L 120 60 115 60 L 110 60 110 65 M 70 80 L 70 90 80 90 L 90 90 90 80 L 90 70 80 70 L 70 70 70 80 M 40 85 L 40 90 50 90 L 60 90 60 85 L 60 80 50 80 L 40 80 40 85 M 100 85 L 100 90 110 90 L 120 90 120 85 L 120 80 110 80 L 100 80 100 85 M 60 105 L 60 110 65 110 L 70 110 70 105 L 70 100 65 100 L 60 100 60 105 M 90 105 L 90 110 95 110 L 100 110 100 105 L 100 100 95 100 L 90 100 90 105" stroke="none" fill="#040404" fill-rule="evenodd"/></svg>