<?xml version="1.0" encoding="UTF-8"?>
<!DOCTYPE svg PUBLIC "-//W3C//DTD SVG 1.1//EN" "http://www.w3.org/Graphics/SVG/1.1/DTD/svg11.dtd">
<svg xmlns="http://www.w3.org/2000/svg" version="1.1" width="4000px" height="4000px" style="shape-rendering:geometricPrecision; text-rendering:geometricPrecision; image-rendering:optimizeQuality; fill-rule:evenodd; clip-rule:evenodd" xmlns:xlink="http://www.w3.org/1999/xlink">
<g><path style="opacity:0.992" fill="#320052" d="M 687.5,1186.5 C 666.5,1186.5 645.5,1186.5 624.5,1186.5C 624.5,1165.83 624.5,1145.17 624.5,1124.5C 645.5,1124.5 666.5,1124.5 687.5,1124.5C 687.5,1145.17 687.5,1165.83 687.5,1186.5 Z"/></g>
<g><path style="opacity:0.996" fill="#310052" d="M 3374.5,1186.5 C 3353.5,1186.5 3332.5,1186.5 3311.5,1186.5C 3311.5,1165.83 3311.5,1145.17 3311.5,1124.5C 3332.5,1124.5 3353.5,1124.5 3374.5,1124.5C 3374.5,1145.17 3374.5,1165.83 3374.5,1186.5 Z"/></g>
<g><path style="opacity:0.984" fill="#320052" d="M 624.5,1186.5 C 624.5,1207.5 624.5,1228.5 624.5,1249.5C 603.5,1249.5 582.5,1249.5 561.5,1249.5C 561.5,1228.5 561.5,1207.5 561.5,1186.5C 582.5,1186.5 603.5,1186.5 624.5,1186.5 Z"/></g>
<g><path style="opacity:0.992" fill="#320052" d="M 687.5,1186.5 C 708.167,1186.5 728.833,1186.5 749.5,1186.5C 749.5,1207.5 749.5,1228.5 749.5,1249.5C 728.833,1249.5 708.167,1249.5 687.5,1249.5C 687.5,1228.5 687.5,1207.5 687.5,1186.5 Z"/></g>
<g><path style="opacity:0.993" fill="#310052" d="M 3311.5,1186.5 C 3311.5,1207.5 3311.5,1228.5 3311.5,1249.5C 3290.83,1249.5 3270.17,1249.5 3249.5,1249.5C 3249.5,1228.5 3249.5,1207.5 3249.5,1186.5C 3270.17,1186.5 3290.83,1186.5 3311.5,1186.5 Z"/></g>
<g><path style="opacity:1" fill="#450072" d="M 624.5,1186.5 C 645.5,1186.5 666.5,1186.5 687.5,1186.5C 687.5,1207.5 687.5,1228.5 687.5,1249.5C 708.167,1249.5 728.833,1249.5 749.5,1249.5C 749.5,1270.17 749.5,1290.83 749.5,1311.5C 770.5,1311.5 791.5,1311.5 812.5,1311.5C 812.5,1332.5 812.5,1353.5 812.5,1374.5C 833.167,1374.5 853.833,1374.5 874.5,1374.5C 874.5,1395.17 874.5,1415.83 874.5,1436.5C 895.5,1436.5 916.5,1436.5 937.5,1436.5C 937.5,1457.5 937.5,1478.5 937.5,1499.5C 958.167,1499.5 978.833,1499.5 999.5,1499.5C 999.5,1520.5 999.5,1541.5 999.5,1562.5C 1020.17,1562.5 1040.83,1562.5 1061.5,1562.5C 1061.5,1583.17 1061.5,1603.83 1061.5,1624.5C 1082.5,1624.5 1103.5,1624.5 1124.5,1624.5C 1124.5,1645.5 1124.5,1666.5 1124.5,1687.5C 1145.17,1687.5 1165.83,1687.5 1186.5,1687.5C 1186.5,1708.17 1186.5,1728.83 1186.5,1749.5C 1207.5,1749.5 1228.5,1749.5 1249.5,1749.5C 1249.5,1770.5 1249.5,1791.5 1249.5,1812.5C 1291.34,1812.83 1333,1812.5 1374.5,1811.5C 1416.17,1811.5 1457.83,1811.5 1499.5,1811.5C 1499.5,1832.5 1499.5,1853.5 1499.5,1874.5C 1499.5,1895.5 1499.5,1916.5 1499.5,1937.5C 1541.17,1937.5 1582.83,1937.5 1624.5,1937.5C 1624.5,1999.83 1624.5,2062.17 1624.5,2124.5C 1603.83,2124.5 1583.17,2124.5 1562.5,2124.5C 1562.5,2103.5 1562.5,2082.5 1562.5,2061.5C 1541.5,2061.5 1520.5,2061.5 1499.5,2061.5C 1499.5,2040.83 1499.5,2020.17 1499.5,1999.5C 1478.83,1999.5 1458.17,1999.5 1437.5,1999.5C 1437.5,1978.5 1437.5,1957.5 1437.5,1936.5C 1395.83,1936.5 1354.17,1936.5 1312.5,1936.5C 1312.83,1915.66 1312.5,1894.99 1311.5,1874.5C 1270.17,1874.5 1228.83,1874.5 1187.5,1874.5C 1187.5,1853.5 1187.5,1832.5 1187.5,1811.5C 1145.83,1811.5 1104.17,1811.5 1062.5,1811.5C 1062.83,1790.66 1062.5,1769.99 1061.5,1749.5C 1040.83,1749.5 1020.17,1749.5 999.5,1749.5C 999.5,1728.83 999.5,1708.17 999.5,1687.5C 978.831,1687.67 958.164,1687.5 937.5,1687C 936.507,1666.24 936.173,1645.41 936.5,1624.5C 915.833,1624.5 895.167,1624.5 874.5,1624.5C 874.5,1603.83 874.5,1583.17 874.5,1562.5C 853.831,1562.67 833.164,1562.5 812.5,1562C 811.507,1541.24 811.173,1520.41 811.5,1499.5C 790.833,1499.5 770.167,1499.5 749.5,1499.5C 749.5,1478.83 749.5,1458.17 749.5,1437.5C 729.007,1436.5 708.34,1436.17 687.5,1436.5C 687.831,1415.66 687.497,1394.99 686.5,1374.5C 665.833,1374.5 645.167,1374.5 624.5,1374.5C 624.5,1395.17 624.5,1415.83 624.5,1436.5C 603.66,1436.17 582.993,1436.5 562.5,1437.5C 562.5,1458.17 562.5,1478.83 562.5,1499.5C 541.5,1499.5 520.5,1499.5 499.5,1499.5C 499.5,1520.5 499.5,1541.5 499.5,1562.5C 478.833,1562.5 458.167,1562.5 437.5,1562.5C 437.5,1583.17 437.5,1603.83 437.5,1624.5C 416.5,1624.5 395.5,1624.5 374.5,1624.5C 374.5,1645.17 374.5,1665.83 374.5,1686.5C 353.833,1686.5 333.167,1686.5 312.5,1686.5C 312.5,1645.17 312.5,1603.83 312.5,1562.5C 333.34,1562.83 354.007,1562.5 374.5,1561.5C 374.5,1519.83 374.5,1478.17 374.5,1436.5C 395.167,1436.5 415.833,1436.5 436.5,1436.5C 436.5,1415.83 436.5,1395.17 436.5,1374.5C 457.5,1374.5 478.5,1374.5 499.5,1374.5C 499.5,1353.5 499.5,1332.5 499.5,1311.5C 520.167,1311.5 540.833,1311.5 561.5,1311.5C 561.5,1290.83 561.5,1270.17 561.5,1249.5C 582.5,1249.5 603.5,1249.5 624.5,1249.5C 624.5,1228.5 624.5,1207.5 624.5,1186.5 Z"/></g>
<g><path style="opacity:1" fill="#450072" d="M 3311.5,1186.5 C 3332.5,1186.5 3353.5,1186.5 3374.5,1186.5C 3374.5,1207.5 3374.5,1228.5 3374.5,1249.5C 3395.17,1249.5 3415.83,1249.5 3436.5,1249.5C 3436.5,1270.5 3436.5,1291.5 3436.5,1312.5C 3457.5,1312.5 3478.5,1312.5 3499.5,1312.5C 3499.5,1333.17 3499.5,1353.83 3499.5,1374.5C 3520.17,1374.5 3540.83,1374.5 3561.5,1374.5C 3561.5,1395.5 3561.5,1416.5 3561.5,1437.5C 3582.5,1437.5 3603.5,1437.5 3624.5,1437.5C 3624.5,1478.83 3624.5,1520.17 3624.5,1561.5C 3644.99,1562.5 3665.66,1562.83 3686.5,1562.5C 3686.5,1603.83 3686.5,1645.17 3686.5,1686.5C 3665.83,1686.5 3645.17,1686.5 3624.5,1686.5C 3624.5,1665.83 3624.5,1645.17 3624.5,1624.5C 3603.5,1624.5 3582.5,1624.5 3561.5,1624.5C 3561.5,1603.83 3561.5,1583.17 3561.5,1562.5C 3540.83,1562.5 3520.17,1562.5 3499.5,1562.5C 3499.5,1541.5 3499.5,1520.5 3499.5,1499.5C 3478.83,1499.5 3458.17,1499.5 3437.5,1499.5C 3437.5,1478.5 3437.5,1457.5 3437.5,1436.5C 3416.5,1436.5 3395.5,1436.5 3374.5,1436.5C 3374.5,1415.83 3374.5,1395.17 3374.5,1374.5C 3353.83,1374.5 3333.17,1374.5 3312.5,1374.5C 3311.5,1394.99 3311.17,1415.66 3311.5,1436.5C 3290.66,1436.17 3269.99,1436.5 3249.5,1437.5C 3249.5,1458.17 3249.5,1478.83 3249.5,1499.5C 3228.5,1499.5 3207.5,1499.5 3186.5,1499.5C 3186.5,1520.17 3186.5,1540.83 3186.5,1561.5C 3165.83,1561.5 3145.17,1561.5 3124.5,1561.5C 3124.5,1582.5 3124.5,1603.5 3124.5,1624.5C 3103.5,1624.5 3082.5,1624.5 3061.5,1624.5C 3061.5,1645.17 3061.5,1665.83 3061.5,1686.5C 3040.83,1686.5 3020.17,1686.5 2999.5,1686.5C 2999.5,1707.5 2999.5,1728.5 2999.5,1749.5C 2978.5,1749.5 2957.5,1749.5 2936.5,1749.5C 2936.5,1770.17 2936.5,1790.83 2936.5,1811.5C 2895.17,1811.5 2853.83,1811.5 2812.5,1811.5C 2812.5,1832.5 2812.5,1853.5 2812.5,1874.5C 2770.5,1874.5 2728.5,1874.5 2686.5,1874.5C 2686.5,1895.17 2686.5,1915.83 2686.5,1936.5C 2645.17,1936.5 2603.83,1936.5 2562.5,1936.5C 2562.5,1957.5 2562.5,1978.5 2562.5,1999.5C 2541.5,1999.5 2520.5,1999.5 2499.5,1999.5C 2499.5,2020.5 2499.5,2041.5 2499.5,2062.5C 2478.83,2062.5 2458.17,2062.5 2437.5,2062.5C 2437.5,2083.17 2437.5,2103.83 2437.5,2124.5C 2416.5,2124.5 2395.5,2124.5 2374.5,2124.5C 2374.5,2062.17 2374.5,1999.83 2374.5,1937.5C 2416.17,1937.5 2457.83,1937.5 2499.5,1937.5C 2499.5,1916.5 2499.5,1895.5 2499.5,1874.5C 2541.17,1874.5 2582.83,1874.5 2624.5,1874.5C 2624.5,1853.83 2624.5,1833.17 2624.5,1812.5C 2666.17,1812.5 2707.83,1812.5 2749.5,1812.5C 2749.5,1791.5 2749.5,1770.5 2749.5,1749.5C 2770.17,1749.5 2790.83,1749.5 2811.5,1749.5C 2811.5,1728.5 2811.5,1707.5 2811.5,1686.5C 2832.5,1686.5 2853.5,1686.5 2874.5,1686.5C 2874.5,1665.83 2874.5,1645.17 2874.5,1624.5C 2895.17,1624.5 2915.83,1624.5 2936.5,1624.5C 2936.5,1603.5 2936.5,1582.5 2936.5,1561.5C 2957.5,1561.5 2978.5,1561.5 2999.5,1561.5C 2999.5,1540.83 2999.5,1520.17 2999.5,1499.5C 3020.17,1499.5 3040.83,1499.5 3061.5,1499.5C 3061.5,1478.5 3061.5,1457.5 3061.5,1436.5C 3082.5,1436.5 3103.5,1436.5 3124.5,1436.5C 3124.5,1415.83 3124.5,1395.17 3124.5,1374.5C 3145.17,1374.5 3165.83,1374.5 3186.5,1374.5C 3186.5,1353.5 3186.5,1332.5 3186.5,1311.5C 3207.5,1311.5 3228.5,1311.5 3249.5,1311.5C 3249.5,1290.83 3249.5,1270.17 3249.5,1249.5C 3270.17,1249.5 3290.83,1249.5 3311.5,1249.5C 3311.5,1228.5 3311.5,1207.5 3311.5,1186.5 Z"/></g>
<g><path style="opacity:1" fill="#320052" d="M 561.5,1249.5 C 561.5,1270.17 561.5,1290.83 561.5,1311.5C 540.833,1311.5 520.167,1311.5 499.5,1311.5C 499.5,1290.83 499.5,1270.17 499.5,1249.5C 520.167,1249.5 540.833,1249.5 561.5,1249.5 Z"/></g>
<g><path style="opacity:0.992" fill="#320052" d="M 749.5,1249.5 C 770.5,1249.5 791.5,1249.5 812.5,1249.5C 812.5,1270.17 812.5,1290.83 812.5,1311.5C 791.5,1311.5 770.5,1311.5 749.5,1311.5C 749.5,1290.83 749.5,1270.17 749.5,1249.5 Z"/></g>
<g><path style="opacity:0.996" fill="#310052" d="M 3249.5,1249.5 C 3249.5,1270.17 3249.5,1290.83 3249.5,1311.5C 3228.5,1311.5 3207.5,1311.5 3186.5,1311.5C 3186.5,1290.83 3186.5,1270.17 3186.5,1249.5C 3207.5,1249.5 3228.5,1249.5 3249.5,1249.5 Z"/></g>
<g><path style="opacity:1" fill="#320053" d="M 3374.5,1186.5 C 3395.5,1186.5 3416.5,1186.5 3437.5,1186.5C 3437.5,1207.5 3437.5,1228.5 3437.5,1249.5C 3458.17,1249.5 3478.83,1249.5 3499.5,1249.5C 3499.5,1270.17 3499.5,1290.83 3499.5,1311.5C 3520.5,1311.5 3541.5,1311.5 3562.5,1311.5C 3562.5,1332.5 3562.5,1353.5 3562.5,1374.5C 3583.17,1374.5 3603.83,1374.5 3624.5,1374.5C 3624.5,1395.17 3624.5,1415.83 3624.5,1436.5C 3645.5,1436.5 3666.5,1436.5 3687.5,1436.5C 3687.5,1478.17 3687.5,1519.83 3687.5,1561.5C 3666.5,1561.5 3645.5,1561.5 3624.5,1561.5C 3624.5,1520.17 3624.5,1478.83 3624.5,1437.5C 3603.5,1437.5 3582.5,1437.5 3561.5,1437.5C 3561.5,1416.5 3561.5,1395.5 3561.5,1374.5C 3540.83,1374.5 3520.17,1374.5 3499.5,1374.5C 3499.5,1353.83 3499.5,1333.17 3499.5,1312.5C 3478.5,1312.5 3457.5,1312.5 3436.5,1312.5C 3436.5,1291.5 3436.5,1270.5 3436.5,1249.5C 3415.83,1249.5 3395.17,1249.5 3374.5,1249.5C 3374.5,1228.5 3374.5,1207.5 3374.5,1186.5 Z"/></g>
<g><path style="opacity:0.984" fill="#320052" d="M 499.5,1311.5 C 499.5,1332.5 499.5,1353.5 499.5,1374.5C 478.5,1374.5 457.5,1374.5 436.5,1374.5C 436.5,1353.5 436.5,1332.5 436.5,1311.5C 457.5,1311.5 478.5,1311.5 499.5,1311.5 Z"/></g>
<g><path style="opacity:0.992" fill="#320052" d="M 812.5,1311.5 C 833.167,1311.5 853.833,1311.5 874.5,1311.5C 874.5,1332.5 874.5,1353.5 874.5,1374.5C 853.833,1374.5 833.167,1374.5 812.5,1374.5C 812.5,1353.5 812.5,1332.5 812.5,1311.5 Z"/></g>
<g><path style="opacity:0.993" fill="#310052" d="M 3186.5,1311.5 C 3186.5,1332.5 3186.5,1353.5 3186.5,1374.5C 3165.83,1374.5 3145.17,1374.5 3124.5,1374.5C 3124.5,1353.5 3124.5,1332.5 3124.5,1311.5C 3145.17,1311.5 3165.83,1311.5 3186.5,1311.5 Z"/></g>
<g><path style="opacity:1" fill="#320052" d="M 436.5,1374.5 C 436.5,1395.17 436.5,1415.83 436.5,1436.5C 415.833,1436.5 395.167,1436.5 374.5,1436.5C 374.5,1415.83 374.5,1395.17 374.5,1374.5C 395.167,1374.5 415.833,1374.5 436.5,1374.5 Z"/></g>
<g><path style="opacity:1" fill="#320052" d="M 686.5,1374.5 C 686.5,1395.17 686.5,1415.83 686.5,1436.5C 665.833,1436.5 645.167,1436.5 624.5,1436.5C 624.5,1415.83 624.5,1395.17 624.5,1374.5C 645.167,1374.5 665.833,1374.5 686.5,1374.5 Z"/></g>
<g><path style="opacity:1" fill="#3b0062" d="M 686.5,1374.5 C 687.497,1394.99 687.831,1415.66 687.5,1436.5C 708.34,1436.17 729.007,1436.5 749.5,1437.5C 728.833,1437.5 708.167,1437.5 687.5,1437.5C 687.5,1583.17 687.5,1728.83 687.5,1874.5C 687.167,1874.5 686.833,1874.5 686.5,1874.5C 686.5,1728.83 686.5,1583.17 686.5,1437.5C 665.833,1437.5 645.167,1437.5 624.5,1437.5C 603.833,1437.5 583.167,1437.5 562.5,1437.5C 582.993,1436.5 603.66,1436.17 624.5,1436.5C 645.167,1436.5 665.833,1436.5 686.5,1436.5C 686.5,1415.83 686.5,1395.17 686.5,1374.5 Z"/></g>
<g><path style="opacity:0.992" fill="#320052" d="M 874.5,1374.5 C 895.5,1374.5 916.5,1374.5 937.5,1374.5C 937.5,1395.17 937.5,1415.83 937.5,1436.5C 916.5,1436.5 895.5,1436.5 874.5,1436.5C 874.5,1415.83 874.5,1395.17 874.5,1374.5 Z"/></g>
<g><path style="opacity:0.996" fill="#310052" d="M 1749.5,1499.5 C 1728.83,1499.5 1708.17,1499.5 1687.5,1499.5C 1687.5,1541.17 1687.5,1582.83 1687.5,1624.5C 1708.17,1624.5 1728.83,1624.5 1749.5,1624.5C 1749.5,1666.17 1749.5,1707.83 1749.5,1749.5C 1728.83,1749.5 1708.17,1749.5 1687.5,1749.5C 1687.17,1749.5 1686.83,1749.5 1686.5,1749.5C 1686.5,1707.83 1686.5,1666.17 1686.5,1624.5C 1665.83,1624.5 1645.17,1624.5 1624.5,1624.5C 1624.5,1561.83 1624.5,1499.17 1624.5,1436.5C 1645.17,1436.5 1665.83,1436.5 1686.5,1436.5C 1686.5,1415.83 1686.5,1395.17 1686.5,1374.5C 1707.5,1374.5 1728.5,1374.5 1749.5,1374.5C 1749.5,1416.17 1749.5,1457.83 1749.5,1499.5 Z"/></g>
<g><path style="opacity:0.998" fill="#310052" d="M 2312.5,1624.5 C 2312.5,1582.83 2312.5,1541.17 2312.5,1499.5C 2291.5,1499.5 2270.5,1499.5 2249.5,1499.5C 2249.5,1457.83 2249.5,1416.17 2249.5,1374.5C 2270.5,1374.5 2291.5,1374.5 2312.5,1374.5C 2312.5,1395.17 2312.5,1415.83 2312.5,1436.5C 2333.17,1436.5 2353.83,1436.5 2374.5,1436.5C 2374.5,1499.17 2374.5,1561.83 2374.5,1624.5C 2353.83,1624.5 2333.17,1624.5 2312.5,1624.5 Z"/></g>
<g><path style="opacity:0.996" fill="#310052" d="M 3124.5,1374.5 C 3124.5,1395.17 3124.5,1415.83 3124.5,1436.5C 3103.5,1436.5 3082.5,1436.5 3061.5,1436.5C 3061.5,1415.83 3061.5,1395.17 3061.5,1374.5C 3082.5,1374.5 3103.5,1374.5 3124.5,1374.5 Z"/></g>
<g><path style="opacity:1" fill="#3b0062" d="M 3312.5,1374.5 C 3333.17,1374.5 3353.83,1374.5 3374.5,1374.5C 3374.5,1395.17 3374.5,1415.83 3374.5,1436.5C 3395.5,1436.5 3416.5,1436.5 3437.5,1436.5C 3437.5,1457.5 3437.5,1478.5 3437.5,1499.5C 3437.17,1499.5 3436.83,1499.5 3436.5,1499.5C 3436.5,1478.83 3436.5,1458.17 3436.5,1437.5C 3415.83,1437.5 3395.17,1437.5 3374.5,1437.5C 3353.83,1437.5 3333.17,1437.5 3312.5,1437.5C 3312.5,1583.17 3312.5,1728.83 3312.5,1874.5C 3312.17,1874.5 3311.83,1874.5 3311.5,1874.5C 3311.5,1728.83 3311.5,1583.17 3311.5,1437.5C 3290.83,1437.5 3270.17,1437.5 3249.5,1437.5C 3269.99,1436.5 3290.66,1436.17 3311.5,1436.5C 3311.17,1415.66 3311.5,1394.99 3312.5,1374.5 Z"/></g>
<g><path style="opacity:1" fill="#310052" d="M 3312.5,1374.5 C 3333.17,1374.5 3353.83,1374.5 3374.5,1374.5C 3374.5,1395.17 3374.5,1415.83 3374.5,1436.5C 3353.83,1436.5 3333.17,1436.5 3312.5,1436.5C 3312.5,1415.83 3312.5,1395.17 3312.5,1374.5 Z"/></g>
<g><path style="opacity:0.988" fill="#320052" d="M 374.5,1436.5 C 374.5,1478.17 374.5,1519.83 374.5,1561.5C 353.5,1561.5 332.5,1561.5 311.5,1561.5C 311.5,1519.83 311.5,1478.17 311.5,1436.5C 332.5,1436.5 353.5,1436.5 374.5,1436.5 Z"/></g>
<g><path style="opacity:0.992" fill="#320052" d="M 937.5,1436.5 C 958.167,1436.5 978.833,1436.5 999.5,1436.5C 999.5,1457.5 999.5,1478.5 999.5,1499.5C 978.833,1499.5 958.167,1499.5 937.5,1499.5C 937.5,1478.5 937.5,1457.5 937.5,1436.5 Z"/></g>
<g><path style="opacity:0.993" fill="#310052" d="M 3061.5,1436.5 C 3061.5,1457.5 3061.5,1478.5 3061.5,1499.5C 3040.83,1499.5 3020.17,1499.5 2999.5,1499.5C 2999.5,1478.5 2999.5,1457.5 2999.5,1436.5C 3020.17,1436.5 3040.83,1436.5 3061.5,1436.5 Z"/></g>
<g><path style="opacity:1" fill="#320052" d="M 562.5,1437.5 C 583.167,1437.5 603.833,1437.5 624.5,1437.5C 624.5,1458.17 624.5,1478.83 624.5,1499.5C 603.833,1499.5 583.167,1499.5 562.5,1499.5C 562.5,1478.83 562.5,1458.17 562.5,1437.5 Z"/></g>
<g><path style="opacity:0.999" fill="#450072" d="M 624.5,1437.5 C 645.167,1437.5 665.833,1437.5 686.5,1437.5C 686.5,1583.17 686.5,1728.83 686.5,1874.5C 665.833,1874.5 645.167,1874.5 624.5,1874.5C 624.5,2061.83 624.5,2249.17 624.5,2436.5C 603.591,2436.17 582.758,2436.51 562,2437.5C 561.167,2541.67 561.334,2645.67 562.5,2749.5C 562.5,2791.17 562.5,2832.83 562.5,2874.5C 541.5,2874.5 520.5,2874.5 499.5,2874.5C 499.5,2749.5 499.5,2624.5 499.5,2499.5C 499.5,2478.83 499.5,2458.17 499.5,2437.5C 499.5,2437.17 499.5,2436.83 499.5,2436.5C 499.5,2415.83 499.5,2395.17 499.5,2374.5C 520.167,2374.5 540.833,2374.5 561.5,2374.5C 562.5,2187 562.833,1999.33 562.5,1811.5C 583.167,1811.5 603.833,1811.5 624.5,1811.5C 624.5,1707.5 624.5,1603.5 624.5,1499.5C 624.5,1478.83 624.5,1458.17 624.5,1437.5 Z"/></g>
<g><path style="opacity:1" fill="#320052" d="M 749.5,1437.5 C 749.5,1458.17 749.5,1478.83 749.5,1499.5C 770.167,1499.5 790.833,1499.5 811.5,1499.5C 811.173,1520.41 811.507,1541.24 812.5,1562C 833.164,1562.5 853.831,1562.67 874.5,1562.5C 874.5,1583.17 874.5,1603.83 874.5,1624.5C 853.5,1624.5 832.5,1624.5 811.5,1624.5C 811.5,1666.17 811.5,1707.83 811.5,1749.5C 790.833,1749.5 770.167,1749.5 749.5,1749.5C 749.5,1791.17 749.5,1832.83 749.5,1874.5C 728.833,1874.5 708.167,1874.5 687.5,1874.5C 687.5,1728.83 687.5,1583.17 687.5,1437.5C 708.167,1437.5 728.833,1437.5 749.5,1437.5 Z"/></g>
<g><path style="opacity:1" fill="#310052" d="M 3249.5,1437.5 C 3270.17,1437.5 3290.83,1437.5 3311.5,1437.5C 3311.5,1583.17 3311.5,1728.83 3311.5,1874.5C 3290.83,1874.5 3270.17,1874.5 3249.5,1874.5C 3249.5,1832.83 3249.5,1791.17 3249.5,1749.5C 3228.83,1749.5 3208.17,1749.5 3187.5,1749.5C 3187.5,1707.83 3187.5,1666.17 3187.5,1624.5C 3166.5,1624.5 3145.5,1624.5 3124.5,1624.5C 3124.5,1603.5 3124.5,1582.5 3124.5,1561.5C 3145.17,1561.5 3165.83,1561.5 3186.5,1561.5C 3186.5,1540.83 3186.5,1520.17 3186.5,1499.5C 3207.5,1499.5 3228.5,1499.5 3249.5,1499.5C 3249.5,1478.83 3249.5,1458.17 3249.5,1437.5 Z"/></g>
<g><path style="opacity:0.999" fill="#450072" d="M 3374.5,1437.5 C 3374.5,1458.17 3374.5,1478.83 3374.5,1499.5C 3374.5,1603.5 3374.5,1707.5 3374.5,1811.5C 3395.17,1811.5 3415.83,1811.5 3436.5,1811.5C 3436.17,1999.33 3436.5,2187 3437.5,2374.5C 3458.17,2374.5 3478.83,2374.5 3499.5,2374.5C 3499.5,2395.17 3499.5,2415.83 3499.5,2436.5C 3499.5,2436.83 3499.5,2437.17 3499.5,2437.5C 3499.5,2458.17 3499.5,2478.83 3499.5,2499.5C 3499.5,2624.5 3499.5,2749.5 3499.5,2874.5C 3478.5,2874.5 3457.5,2874.5 3436.5,2874.5C 3436.5,2832.83 3436.5,2791.17 3436.5,2749.5C 3437.5,2645.33 3437.83,2541 3437.5,2436.5C 3416.5,2436.5 3395.5,2436.5 3374.5,2436.5C 3374.5,2249.17 3374.5,2061.83 3374.5,1874.5C 3353.83,1874.5 3333.17,1874.5 3312.5,1874.5C 3312.5,1728.83 3312.5,1583.17 3312.5,1437.5C 3333.17,1437.5 3353.83,1437.5 3374.5,1437.5 Z"/></g>
<g><path style="opacity:1" fill="#310052" d="M 3374.5,1437.5 C 3395.17,1437.5 3415.83,1437.5 3436.5,1437.5C 3436.5,1458.17 3436.5,1478.83 3436.5,1499.5C 3415.83,1499.5 3395.17,1499.5 3374.5,1499.5C 3374.5,1478.83 3374.5,1458.17 3374.5,1437.5 Z"/></g>
<g><path style="opacity:1" fill="#310151" d="M 562.5,1499.5 C 562.667,1520.17 562.5,1540.84 562,1561.5C 541.242,1562.49 520.409,1562.83 499.5,1562.5C 499.5,1541.5 499.5,1520.5 499.5,1499.5C 520.5,1499.5 541.5,1499.5 562.5,1499.5 Z"/></g>
<g><path style="opacity:1" fill="#022c10" d="M 562.5,1499.5 C 583.167,1499.5 603.833,1499.5 624.5,1499.5C 624.5,1603.5 624.5,1707.5 624.5,1811.5C 603.833,1811.5 583.167,1811.5 562.5,1811.5C 562.5,1769.83 562.5,1728.17 562.5,1686.5C 520.833,1686.5 479.167,1686.5 437.5,1686.5C 437.5,1665.83 437.5,1645.17 437.5,1624.5C 458.167,1624.5 478.833,1624.5 499.5,1624.5C 499.5,1603.83 499.5,1583.17 499.5,1562.5C 520.409,1562.83 541.242,1562.49 562,1561.5C 562.5,1540.84 562.667,1520.17 562.5,1499.5 Z"/></g>
<g><path style="opacity:1" fill="#450073" d="M 1749.5,1499.5 C 1749.5,1520.5 1749.5,1541.5 1749.5,1562.5C 1770.17,1562.5 1790.83,1562.5 1811.5,1562.5C 1811.5,1583.17 1811.5,1603.83 1811.5,1624.5C 1832.5,1624.5 1853.5,1624.5 1874.5,1624.5C 1874.5,1645.5 1874.5,1666.5 1874.5,1687.5C 1895.17,1687.5 1915.83,1687.5 1936.5,1687.5C 1936.5,1708.17 1936.5,1728.83 1936.5,1749.5C 1978.17,1749.5 2019.83,1749.5 2061.5,1749.5C 2061.5,1728.83 2061.5,1708.17 2061.5,1687.5C 2082.5,1687.5 2103.5,1687.5 2124.5,1687.5C 2124.5,1666.5 2124.5,1645.5 2124.5,1624.5C 2145.17,1624.5 2165.83,1624.5 2186.5,1624.5C 2186.5,1603.5 2186.5,1582.5 2186.5,1561.5C 2207.5,1561.5 2228.5,1561.5 2249.5,1561.5C 2249.5,1540.83 2249.5,1520.17 2249.5,1499.5C 2270.5,1499.5 2291.5,1499.5 2312.5,1499.5C 2312.5,1541.17 2312.5,1582.83 2312.5,1624.5C 2291.5,1624.5 2270.5,1624.5 2249.5,1624.5C 2249.5,1666.17 2249.5,1707.83 2249.5,1749.5C 2270.5,1749.5 2291.5,1749.5 2312.5,1749.5C 2312.5,1916.17 2312.5,2082.83 2312.5,2249.5C 2311.5,2270.33 2311.17,2291.33 2311.5,2312.5C 2290.83,2312.5 2270.17,2312.5 2249.5,2312.5C 2249.5,2333.17 2249.5,2353.83 2249.5,2374.5C 2228.83,2374.5 2208.17,2374.5 2187.5,2374.5C 2186.5,2394.99 2186.17,2415.66 2186.5,2436.5C 2061.83,2436.5 1937.17,2436.5 1812.5,2436.5C 1812.83,2415.66 1812.5,2394.99 1811.5,2374.5C 1790.83,2374.5 1770.17,2374.5 1749.5,2374.5C 1749.5,2353.83 1749.5,2333.17 1749.5,2312.5C 1729.01,2311.5 1708.34,2311.17 1687.5,2311.5C 1687.5,2124.17 1687.5,1936.83 1687.5,1749.5C 1708.17,1749.5 1728.83,1749.5 1749.5,1749.5C 1749.5,1707.83 1749.5,1666.17 1749.5,1624.5C 1728.83,1624.5 1708.17,1624.5 1687.5,1624.5C 1687.5,1582.83 1687.5,1541.17 1687.5,1499.5C 1708.17,1499.5 1728.83,1499.5 1749.5,1499.5 Z"/></g>
<g><path style="opacity:0.996" fill="#310052" d="M 2249.5,1499.5 C 2249.5,1520.17 2249.5,1540.83 2249.5,1561.5C 2228.5,1561.5 2207.5,1561.5 2186.5,1561.5C 2186.5,1540.83 2186.5,1520.17 2186.5,1499.5C 2207.5,1499.5 2228.5,1499.5 2249.5,1499.5 Z"/></g>
<g><path style="opacity:0.996" fill="#310052" d="M 2999.5,1499.5 C 2999.5,1520.17 2999.5,1540.83 2999.5,1561.5C 2978.5,1561.5 2957.5,1561.5 2936.5,1561.5C 2936.5,1540.83 2936.5,1520.17 2936.5,1499.5C 2957.5,1499.5 2978.5,1499.5 2999.5,1499.5 Z"/></g>
<g><path style="opacity:1" fill="#022c11" d="M 3374.5,1499.5 C 3395.17,1499.5 3415.83,1499.5 3436.5,1499.5C 3436.33,1520.17 3436.5,1540.84 3437,1561.5C 3457.76,1562.49 3478.59,1562.83 3499.5,1562.5C 3520.17,1562.5 3540.83,1562.5 3561.5,1562.5C 3561.5,1583.17 3561.5,1603.83 3561.5,1624.5C 3561.5,1645.17 3561.5,1665.83 3561.5,1686.5C 3519.83,1686.5 3478.17,1686.5 3436.5,1686.5C 3436.5,1728.17 3436.5,1769.83 3436.5,1811.5C 3415.83,1811.5 3395.17,1811.5 3374.5,1811.5C 3374.5,1707.5 3374.5,1603.5 3374.5,1499.5 Z"/></g>
<g><path style="opacity:1" fill="#310151" d="M 3436.5,1499.5 C 3436.83,1499.5 3437.17,1499.5 3437.5,1499.5C 3458.17,1499.5 3478.83,1499.5 3499.5,1499.5C 3499.5,1520.5 3499.5,1541.5 3499.5,1562.5C 3478.59,1562.83 3457.76,1562.49 3437,1561.5C 3436.5,1540.84 3436.33,1520.17 3436.5,1499.5 Z"/></g>
<g><path style="opacity:0.996" fill="#320052" d="M 311.5,1561.5 C 311.5,1603.17 311.5,1644.83 311.5,1686.5C 290.833,1686.5 270.167,1686.5 249.5,1686.5C 249.5,1644.83 249.5,1603.17 249.5,1561.5C 270.167,1561.5 290.833,1561.5 311.5,1561.5 Z"/></g>
<g><path style="opacity:0.989" fill="#310052" d="M 999.5,1499.5 C 1020.5,1499.5 1041.5,1499.5 1062.5,1499.5C 1062.5,1520.17 1062.5,1540.83 1062.5,1561.5C 1083.17,1561.5 1103.83,1561.5 1124.5,1561.5C 1124.5,1582.5 1124.5,1603.5 1124.5,1624.5C 1124.5,1603.5 1124.5,1582.5 1124.5,1561.5C 1103.83,1561.5 1083.17,1561.5 1062.5,1561.5C 1062.5,1540.83 1062.5,1520.17 1062.5,1499.5C 1041.5,1499.5 1020.5,1499.5 999.5,1499.5 Z"/></g>
<g><path style="opacity:0.989" fill="#310052" d="M 1749.5,1499.5 C 1770.5,1499.5 1791.5,1499.5 1812.5,1499.5C 1812.5,1520.17 1812.5,1540.83 1812.5,1561.5C 1833.17,1561.5 1853.83,1561.5 1874.5,1561.5C 1874.5,1582.5 1874.5,1603.5 1874.5,1624.5C 1874.5,1603.5 1874.5,1582.5 1874.5,1561.5C 1853.83,1561.5 1833.17,1561.5 1812.5,1561.5C 1812.5,1540.83 1812.5,1520.17 1812.5,1499.5C 1791.5,1499.5 1770.5,1499.5 1749.5,1499.5 Z"/></g>
<g><path style="opacity:0.993" fill="#310052" d="M 2186.5,1561.5 C 2186.5,1582.5 2186.5,1603.5 2186.5,1624.5C 2165.83,1624.5 2145.17,1624.5 2124.5,1624.5C 2124.5,1603.5 2124.5,1582.5 2124.5,1561.5C 2145.17,1561.5 2165.83,1561.5 2186.5,1561.5 Z"/></g>
<g><path style="opacity:0.993" fill="#310052" d="M 2936.5,1561.5 C 2936.5,1582.5 2936.5,1603.5 2936.5,1624.5C 2915.83,1624.5 2895.17,1624.5 2874.5,1624.5C 2874.5,1603.5 2874.5,1582.5 2874.5,1561.5C 2895.17,1561.5 2915.83,1561.5 2936.5,1561.5 Z"/></g>
<g><path style="opacity:0.997" fill="#310052" d="M 3687.5,1561.5 C 3708.17,1561.5 3728.83,1561.5 3749.5,1561.5C 3749.5,1603.17 3749.5,1644.83 3749.5,1686.5C 3728.83,1686.5 3708.17,1686.5 3687.5,1686.5C 3687.5,1644.83 3687.5,1603.17 3687.5,1561.5 Z"/></g>
<g><path style="opacity:1" fill="#3b0062" d="M 311.5,1561.5 C 332.5,1561.5 353.5,1561.5 374.5,1561.5C 354.007,1562.5 333.34,1562.83 312.5,1562.5C 312.5,1603.83 312.5,1645.17 312.5,1686.5C 333.167,1686.5 353.833,1686.5 374.5,1686.5C 374.5,1686.83 374.5,1687.17 374.5,1687.5C 353.833,1687.5 333.167,1687.5 312.5,1687.5C 312.5,1729.17 312.5,1770.83 312.5,1812.5C 291.5,1812.5 270.5,1812.5 249.5,1812.5C 228.833,1812.5 208.167,1812.5 187.5,1812.5C 187.832,1854 187.499,1895.34 186.5,1936.5C 186.5,1894.83 186.5,1853.17 186.5,1811.5C 207.5,1811.5 228.5,1811.5 249.5,1811.5C 270.167,1811.5 290.833,1811.5 311.5,1811.5C 311.5,1770.17 311.5,1728.83 311.5,1687.5C 290.833,1687.5 270.167,1687.5 249.5,1687.5C 249.5,1687.17 249.5,1686.83 249.5,1686.5C 270.167,1686.5 290.833,1686.5 311.5,1686.5C 311.5,1644.83 311.5,1603.17 311.5,1561.5 Z"/></g>
<g><path style="opacity:1" fill="#320052" d="M 499.5,1562.5 C 499.5,1583.17 499.5,1603.83 499.5,1624.5C 478.833,1624.5 458.167,1624.5 437.5,1624.5C 437.5,1603.83 437.5,1583.17 437.5,1562.5C 458.167,1562.5 478.833,1562.5 499.5,1562.5 Z"/></g>
<g><path style="opacity:1" fill="#310052" d="M 3499.5,1562.5 C 3520.17,1562.5 3540.83,1562.5 3561.5,1562.5C 3561.5,1583.17 3561.5,1603.83 3561.5,1624.5C 3540.83,1624.5 3520.17,1624.5 3499.5,1624.5C 3499.5,1603.83 3499.5,1583.17 3499.5,1562.5 Z"/></g>
<g><path style="opacity:1" fill="#3b0062" d="M 3624.5,1561.5 C 3645.5,1561.5 3666.5,1561.5 3687.5,1561.5C 3687.5,1603.17 3687.5,1644.83 3687.5,1686.5C 3708.17,1686.5 3728.83,1686.5 3749.5,1686.5C 3749.5,1686.83 3749.5,1687.17 3749.5,1687.5C 3728.83,1687.5 3708.17,1687.5 3687.5,1687.5C 3687.5,1728.83 3687.5,1770.17 3687.5,1811.5C 3708.17,1811.5 3728.83,1811.5 3749.5,1811.5C 3770.5,1811.5 3791.5,1811.5 3812.5,1811.5C 3812.5,1853.17 3812.5,1894.83 3812.5,1936.5C 3833.17,1936.5 3853.83,1936.5 3874.5,1936.5C 3874.5,1936.83 3874.5,1937.17 3874.5,1937.5C 3853.5,1937.5 3832.5,1937.5 3811.5,1937.5C 3811.5,1895.83 3811.5,1854.17 3811.5,1812.5C 3790.83,1812.5 3770.17,1812.5 3749.5,1812.5C 3728.5,1812.5 3707.5,1812.5 3686.5,1812.5C 3686.5,1770.83 3686.5,1729.17 3686.5,1687.5C 3665.83,1687.5 3645.17,1687.5 3624.5,1687.5C 3624.5,1687.17 3624.5,1686.83 3624.5,1686.5C 3645.17,1686.5 3665.83,1686.5 3686.5,1686.5C 3686.5,1645.17 3686.5,1603.83 3686.5,1562.5C 3665.66,1562.83 3644.99,1562.5 3624.5,1561.5 Z"/></g>
<g><path style="opacity:1" fill="#310151" d="M 437.5,1624.5 C 437.5,1645.17 437.5,1665.83 437.5,1686.5C 436.833,1686.5 436.5,1686.83 436.5,1687.5C 415.833,1687.5 395.167,1687.5 374.5,1687.5C 374.5,1687.17 374.5,1686.83 374.5,1686.5C 374.5,1665.83 374.5,1645.17 374.5,1624.5C 395.5,1624.5 416.5,1624.5 437.5,1624.5 Z"/></g>
<g><path style="opacity:1" fill="#450071" d="M 874.5,1624.5 C 874.5,1728.5 874.5,1832.5 874.5,1936.5C 853.833,1936.5 833.167,1936.5 812.5,1936.5C 811.501,1874.34 811.168,1812 811.5,1749.5C 811.5,1707.83 811.5,1666.17 811.5,1624.5C 832.5,1624.5 853.5,1624.5 874.5,1624.5 Z"/></g>
<g><path style="opacity:1" fill="#310052" d="M 874.5,1624.5 C 895.167,1624.5 915.833,1624.5 936.5,1624.5C 936.173,1645.41 936.507,1666.24 937.5,1687C 958.164,1687.5 978.831,1687.67 999.5,1687.5C 999.5,1708.17 999.5,1728.83 999.5,1749.5C 1020.17,1749.5 1040.83,1749.5 1061.5,1749.5C 1061.5,1770.5 1061.5,1791.5 1061.5,1812.5C 1020.17,1812.5 978.833,1812.5 937.5,1812.5C 937.5,1853.83 937.5,1895.17 937.5,1936.5C 916.5,1936.5 895.5,1936.5 874.5,1936.5C 874.5,1832.5 874.5,1728.5 874.5,1624.5 Z"/></g>
<g><path style="opacity:1" fill="#310052" d="M 1874.5,1624.5 C 1957.83,1624.5 2041.17,1624.5 2124.5,1624.5C 2124.5,1645.5 2124.5,1666.5 2124.5,1687.5C 2103.5,1687.5 2082.5,1687.5 2061.5,1687.5C 2061.5,1708.17 2061.5,1728.83 2061.5,1749.5C 2019.83,1749.5 1978.17,1749.5 1936.5,1749.5C 1936.5,1728.83 1936.5,1708.17 1936.5,1687.5C 1915.83,1687.5 1895.17,1687.5 1874.5,1687.5C 1874.5,1666.5 1874.5,1645.5 1874.5,1624.5 Z"/></g>
<g><path style="opacity:0.996" fill="#310052" d="M 2312.5,1624.5 C 2312.5,1666.17 2312.5,1707.83 2312.5,1749.5C 2291.5,1749.5 2270.5,1749.5 2249.5,1749.5C 2249.5,1707.83 2249.5,1666.17 2249.5,1624.5C 2270.5,1624.5 2291.5,1624.5 2312.5,1624.5 Z"/></g>
<g><path style="opacity:0.996" fill="#310052" d="M 2874.5,1624.5 C 2874.5,1645.17 2874.5,1665.83 2874.5,1686.5C 2853.5,1686.5 2832.5,1686.5 2811.5,1686.5C 2811.5,1665.83 2811.5,1645.17 2811.5,1624.5C 2832.5,1624.5 2853.5,1624.5 2874.5,1624.5 Z"/></g>
<g><path style="opacity:1" fill="#310052" d="M 3124.5,1624.5 C 3124.5,1728.5 3124.5,1832.5 3124.5,1936.5C 3103.5,1936.5 3082.5,1936.5 3061.5,1936.5C 3061.5,1895.17 3061.5,1853.83 3061.5,1812.5C 3020.17,1812.5 2978.83,1812.5 2937.5,1812.5C 2937.5,1833.17 2937.5,1853.83 2937.5,1874.5C 2895.83,1874.5 2854.17,1874.5 2812.5,1874.5C 2812.5,1853.5 2812.5,1832.5 2812.5,1811.5C 2853.83,1811.5 2895.17,1811.5 2936.5,1811.5C 2936.5,1790.83 2936.5,1770.17 2936.5,1749.5C 2957.5,1749.5 2978.5,1749.5 2999.5,1749.5C 2999.5,1728.5 2999.5,1707.5 2999.5,1686.5C 3020.17,1686.5 3040.83,1686.5 3061.5,1686.5C 3061.5,1665.83 3061.5,1645.17 3061.5,1624.5C 3082.5,1624.5 3103.5,1624.5 3124.5,1624.5 Z"/></g>
<g><path style="opacity:1" fill="#450072" d="M 3124.5,1624.5 C 3145.5,1624.5 3166.5,1624.5 3187.5,1624.5C 3187.5,1666.17 3187.5,1707.83 3187.5,1749.5C 3187.83,1812 3187.5,1874.34 3186.5,1936.5C 3165.83,1936.5 3145.17,1936.5 3124.5,1936.5C 3124.5,1832.5 3124.5,1728.5 3124.5,1624.5 Z"/></g>
<g><path style="opacity:1" fill="#310151" d="M 3561.5,1624.5 C 3582.5,1624.5 3603.5,1624.5 3624.5,1624.5C 3624.5,1645.17 3624.5,1665.83 3624.5,1686.5C 3624.5,1686.83 3624.5,1687.17 3624.5,1687.5C 3603.83,1687.5 3583.17,1687.5 3562.5,1687.5C 3562.5,1686.83 3562.17,1686.5 3561.5,1686.5C 3561.5,1665.83 3561.5,1645.17 3561.5,1624.5 Z"/></g>
<g><path style="opacity:0.988" fill="#320052" d="M 249.5,1686.5 C 249.5,1686.83 249.5,1687.17 249.5,1687.5C 249.5,1728.83 249.5,1770.17 249.5,1811.5C 228.5,1811.5 207.5,1811.5 186.5,1811.5C 186.5,1769.83 186.5,1728.17 186.5,1686.5C 207.5,1686.5 228.5,1686.5 249.5,1686.5 Z"/></g>
<g><path style="opacity:0.989" fill="#310052" d="M 1124.5,1624.5 C 1145.5,1624.5 1166.5,1624.5 1187.5,1624.5C 1187.5,1645.17 1187.5,1665.83 1187.5,1686.5C 1208.17,1686.5 1228.83,1686.5 1249.5,1686.5C 1249.5,1707.5 1249.5,1728.5 1249.5,1749.5C 1249.5,1728.5 1249.5,1707.5 1249.5,1686.5C 1228.83,1686.5 1208.17,1686.5 1187.5,1686.5C 1187.5,1665.83 1187.5,1645.17 1187.5,1624.5C 1166.5,1624.5 1145.5,1624.5 1124.5,1624.5 Z"/></g>
<g><path style="opacity:0.993" fill="#310052" d="M 2811.5,1686.5 C 2811.5,1707.5 2811.5,1728.5 2811.5,1749.5C 2790.83,1749.5 2770.17,1749.5 2749.5,1749.5C 2749.5,1728.5 2749.5,1707.5 2749.5,1686.5C 2770.17,1686.5 2790.83,1686.5 2811.5,1686.5 Z"/></g>
<g><path style="opacity:0.992" fill="#310052" d="M 3749.5,1686.5 C 3770.5,1686.5 3791.5,1686.5 3812.5,1686.5C 3812.5,1728.17 3812.5,1769.83 3812.5,1811.5C 3791.5,1811.5 3770.5,1811.5 3749.5,1811.5C 3749.5,1770.17 3749.5,1728.83 3749.5,1687.5C 3749.5,1687.17 3749.5,1686.83 3749.5,1686.5 Z"/></g>
<g><path style="opacity:1" fill="#450072" d="M 249.5,1687.5 C 270.167,1687.5 290.833,1687.5 311.5,1687.5C 311.5,1728.83 311.5,1770.17 311.5,1811.5C 290.833,1811.5 270.167,1811.5 249.5,1811.5C 249.5,1770.17 249.5,1728.83 249.5,1687.5 Z"/></g>
<g><path style="opacity:1" fill="#310052" d="M 374.5,1687.5 C 374.5,1708.17 374.5,1728.83 374.5,1749.5C 374.5,1770.5 374.5,1791.5 374.5,1812.5C 353.833,1812.5 333.167,1812.5 312.5,1812.5C 312.5,1770.83 312.5,1729.17 312.5,1687.5C 333.167,1687.5 353.833,1687.5 374.5,1687.5 Z"/></g>
<g><path style="opacity:1" fill="#022c10" d="M 374.5,1687.5 C 395.167,1687.5 415.833,1687.5 436.5,1687.5C 436.5,1708.17 436.5,1728.83 436.5,1749.5C 415.833,1749.5 395.167,1749.5 374.5,1749.5C 374.5,1728.83 374.5,1708.17 374.5,1687.5 Z"/></g>
<g><path style="opacity:1" fill="#054519" d="M 561.5,2186.5 C 540.833,2186.5 520.167,2186.5 499.5,2186.5C 499.5,2165.83 499.5,2145.17 499.5,2124.5C 436.833,2124.5 374.167,2124.5 311.5,2124.5C 311.5,2145.17 311.5,2165.83 311.5,2186.5C 290.833,2186.5 270.167,2186.5 249.5,2186.5C 249.5,2124.17 249.5,2061.83 249.5,1999.5C 270.5,1999.5 291.5,1999.5 312.5,1999.5C 312.5,1937.17 312.5,1874.83 312.5,1812.5C 333.167,1812.5 353.833,1812.5 374.5,1812.5C 374.5,1791.5 374.5,1770.5 374.5,1749.5C 395.167,1749.5 415.833,1749.5 436.5,1749.5C 437.497,1729.01 437.831,1708.34 437.5,1687.5C 478.833,1687.5 520.167,1687.5 561.5,1687.5C 561.5,1853.83 561.5,2020.17 561.5,2186.5 Z"/></g>
<g><path style="opacity:1" fill="#19342a" d="M 437.5,1686.5 C 479.167,1686.5 520.833,1686.5 562.5,1686.5C 562.5,1728.17 562.5,1769.83 562.5,1811.5C 562.833,1999.33 562.5,2187 561.5,2374.5C 561.5,2311.83 561.5,2249.17 561.5,2186.5C 561.5,2020.17 561.5,1853.83 561.5,1687.5C 520.167,1687.5 478.833,1687.5 437.5,1687.5C 437.831,1708.34 437.497,1729.01 436.5,1749.5C 436.5,1728.83 436.5,1708.17 436.5,1687.5C 436.5,1686.83 436.833,1686.5 437.5,1686.5 Z"/></g>
<g><path style="opacity:1" fill="#19342a" d="M 3561.5,1686.5 C 3562.17,1686.5 3562.5,1686.83 3562.5,1687.5C 3562.5,1708.17 3562.5,1728.83 3562.5,1749.5C 3561.5,1729.01 3561.17,1708.34 3561.5,1687.5C 3520.17,1687.5 3478.83,1687.5 3437.5,1687.5C 3437.5,1853.83 3437.5,2020.17 3437.5,2186.5C 3437.5,2249.17 3437.5,2311.83 3437.5,2374.5C 3436.5,2187 3436.17,1999.33 3436.5,1811.5C 3436.5,1769.83 3436.5,1728.17 3436.5,1686.5C 3478.17,1686.5 3519.83,1686.5 3561.5,1686.5 Z"/></g>
<g><path style="opacity:1" fill="#04451a" d="M 3562.5,1749.5 C 3583.17,1749.5 3603.83,1749.5 3624.5,1749.5C 3624.5,1770.5 3624.5,1791.5 3624.5,1812.5C 3645.17,1812.5 3665.83,1812.5 3686.5,1812.5C 3686.5,1874.83 3686.5,1937.17 3686.5,1999.5C 3707.5,1999.5 3728.5,1999.5 3749.5,1999.5C 3749.5,2061.83 3749.5,2124.17 3749.5,2186.5C 3728.83,2186.5 3708.17,2186.5 3687.5,2186.5C 3687.5,2165.83 3687.5,2145.17 3687.5,2124.5C 3624.83,2124.5 3562.17,2124.5 3499.5,2124.5C 3499.5,2145.17 3499.5,2165.83 3499.5,2186.5C 3478.83,2186.5 3458.17,2186.5 3437.5,2186.5C 3437.5,2020.17 3437.5,1853.83 3437.5,1687.5C 3478.83,1687.5 3520.17,1687.5 3561.5,1687.5C 3561.17,1708.34 3561.5,1729.01 3562.5,1749.5 Z"/></g>
<g><path style="opacity:1" fill="#022c11" d="M 3562.5,1687.5 C 3583.17,1687.5 3603.83,1687.5 3624.5,1687.5C 3624.5,1708.17 3624.5,1728.83 3624.5,1749.5C 3603.83,1749.5 3583.17,1749.5 3562.5,1749.5C 3562.5,1728.83 3562.5,1708.17 3562.5,1687.5 Z"/></g>
<g><path style="opacity:1" fill="#310052" d="M 3624.5,1687.5 C 3645.17,1687.5 3665.83,1687.5 3686.5,1687.5C 3686.5,1729.17 3686.5,1770.83 3686.5,1812.5C 3665.83,1812.5 3645.17,1812.5 3624.5,1812.5C 3624.5,1791.5 3624.5,1770.5 3624.5,1749.5C 3624.5,1728.83 3624.5,1708.17 3624.5,1687.5 Z"/></g>
<g><path style="opacity:1" fill="#450073" d="M 3749.5,1687.5 C 3749.5,1728.83 3749.5,1770.17 3749.5,1811.5C 3728.83,1811.5 3708.17,1811.5 3687.5,1811.5C 3687.5,1770.17 3687.5,1728.83 3687.5,1687.5C 3708.17,1687.5 3728.83,1687.5 3749.5,1687.5 Z"/></g>
<g><path style="opacity:1" fill="#032c11" d="M 811.5,1749.5 C 811.168,1812 811.501,1874.34 812.5,1936.5C 832.993,1937.5 853.66,1937.83 874.5,1937.5C 874.5,1958.17 874.5,1978.83 874.5,1999.5C 853.5,1999.5 832.5,1999.5 811.5,1999.5C 811.5,1978.83 811.5,1958.17 811.5,1937.5C 790.833,1937.5 770.167,1937.5 749.5,1937.5C 749.5,1958.17 749.5,1978.83 749.5,1999.5C 728.833,1999.5 708.167,1999.5 687.5,1999.5C 687.5,2082.83 687.5,2166.17 687.5,2249.5C 687.832,2312 687.499,2374.34 686.5,2436.5C 686.5,2249.17 686.5,2061.83 686.5,1874.5C 686.833,1874.5 687.167,1874.5 687.5,1874.5C 708.167,1874.5 728.833,1874.5 749.5,1874.5C 749.5,1832.83 749.5,1791.17 749.5,1749.5C 770.167,1749.5 790.833,1749.5 811.5,1749.5 Z"/></g>
<g><path style="opacity:1" fill="#310052" d="M 1249.5,1749.5 C 1291.17,1749.5 1332.83,1749.5 1374.5,1749.5C 1374.5,1770.17 1374.5,1790.83 1374.5,1811.5C 1333,1812.5 1291.34,1812.83 1249.5,1812.5C 1249.5,1791.5 1249.5,1770.5 1249.5,1749.5 Z"/></g>
<g><path style="opacity:1" fill="#310052" d="M 1686.5,1749.5 C 1686.5,1916.17 1686.5,2082.83 1686.5,2249.5C 1665.83,2249.5 1645.17,2249.5 1624.5,2249.5C 1624.5,2228.83 1624.5,2208.17 1624.5,2187.5C 1603.83,2187.67 1583.16,2187.5 1562.5,2187C 1561.51,2166.24 1561.17,2145.41 1561.5,2124.5C 1561.83,2124.5 1562.17,2124.5 1562.5,2124.5C 1583.17,2124.5 1603.83,2124.5 1624.5,2124.5C 1624.5,2062.17 1624.5,1999.83 1624.5,1937.5C 1582.83,1937.5 1541.17,1937.5 1499.5,1937.5C 1499.5,1916.5 1499.5,1895.5 1499.5,1874.5C 1541.17,1874.5 1582.83,1874.5 1624.5,1874.5C 1624.5,1832.83 1624.5,1791.17 1624.5,1749.5C 1645.17,1749.5 1665.83,1749.5 1686.5,1749.5 Z"/></g>
<g><path style="opacity:1" fill="#3a0060" d="M 1686.5,1749.5 C 1686.83,1749.5 1687.17,1749.5 1687.5,1749.5C 1687.5,1936.83 1687.5,2124.17 1687.5,2311.5C 1708.34,2311.17 1729.01,2311.5 1749.5,2312.5C 1728.83,2312.5 1708.17,2312.5 1687.5,2312.5C 1687.17,2312.5 1686.83,2312.5 1686.5,2312.5C 1686.5,2291.5 1686.5,2270.5 1686.5,2249.5C 1686.5,2082.83 1686.5,1916.17 1686.5,1749.5 Z"/></g>
<g><path style="opacity:1" fill="#032c12" d="M 3187.5,1749.5 C 3208.17,1749.5 3228.83,1749.5 3249.5,1749.5C 3249.5,1791.17 3249.5,1832.83 3249.5,1874.5C 3270.17,1874.5 3290.83,1874.5 3311.5,1874.5C 3311.83,1874.5 3312.17,1874.5 3312.5,1874.5C 3312.5,2061.83 3312.5,2249.17 3312.5,2436.5C 3311.5,2374.34 3311.17,2312 3311.5,2249.5C 3311.5,2166.17 3311.5,2082.83 3311.5,1999.5C 3290.83,1999.5 3270.17,1999.5 3249.5,1999.5C 3249.5,1978.83 3249.5,1958.17 3249.5,1937.5C 3228.83,1937.5 3208.17,1937.5 3187.5,1937.5C 3187.5,1958.17 3187.5,1978.83 3187.5,1999.5C 3166.5,1999.5 3145.5,1999.5 3124.5,1999.5C 3124.5,1978.83 3124.5,1958.17 3124.5,1937.5C 3145.34,1937.83 3166.01,1937.5 3186.5,1936.5C 3187.5,1874.34 3187.83,1812 3187.5,1749.5 Z"/></g>
<g><path style="opacity:0.996" fill="#320052" d="M 186.5,1811.5 C 186.5,1853.17 186.5,1894.83 186.5,1936.5C 165.833,1936.5 145.167,1936.5 124.5,1936.5C 124.5,1894.83 124.5,1853.17 124.5,1811.5C 145.167,1811.5 165.833,1811.5 186.5,1811.5 Z"/></g>
<g><path style="opacity:1" fill="#3b0062" d="M 1061.5,1749.5 C 1062.5,1769.99 1062.83,1790.66 1062.5,1811.5C 1104.17,1811.5 1145.83,1811.5 1187.5,1811.5C 1187.5,1832.5 1187.5,1853.5 1187.5,1874.5C 1187.17,1874.5 1186.83,1874.5 1186.5,1874.5C 1186.5,1853.83 1186.5,1833.17 1186.5,1812.5C 1144.83,1812.5 1103.17,1812.5 1061.5,1812.5C 1061.5,1791.5 1061.5,1770.5 1061.5,1749.5 Z"/></g>
<g><path style="opacity:0.993" fill="#310052" d="M 2749.5,1749.5 C 2749.5,1770.5 2749.5,1791.5 2749.5,1812.5C 2707.83,1812.5 2666.17,1812.5 2624.5,1812.5C 2624.5,1833.17 2624.5,1853.83 2624.5,1874.5C 2582.83,1874.5 2541.17,1874.5 2499.5,1874.5C 2499.5,1853.5 2499.5,1832.5 2499.5,1811.5C 2541.17,1811.5 2582.83,1811.5 2624.5,1811.5C 2624.5,1790.83 2624.5,1770.17 2624.5,1749.5C 2666.17,1749.5 2707.83,1749.5 2749.5,1749.5 Z"/></g>
<g><path style="opacity:0.997" fill="#310052" d="M 3812.5,1811.5 C 3833.17,1811.5 3853.83,1811.5 3874.5,1811.5C 3874.5,1853.17 3874.5,1894.83 3874.5,1936.5C 3853.83,1936.5 3833.17,1936.5 3812.5,1936.5C 3812.5,1894.83 3812.5,1853.17 3812.5,1811.5 Z"/></g>
<g><path style="opacity:1" fill="#450072" d="M 249.5,1812.5 C 249.5,1874.83 249.5,1937.17 249.5,1999.5C 228.833,1999.5 208.167,1999.5 187.5,1999.5C 187.5,2082.83 187.5,2166.17 187.5,2249.5C 166.5,2249.5 145.5,2249.5 124.5,2249.5C 124.5,2311.83 124.5,2374.17 124.5,2436.5C 103.833,2436.5 83.1667,2436.5 62.5,2436.5C 62.5,2332.5 62.5,2228.5 62.5,2124.5C 83.1667,2124.5 103.833,2124.5 124.5,2124.5C 124.5,2061.83 124.5,1999.17 124.5,1936.5C 145.167,1936.5 165.833,1936.5 186.5,1936.5C 187.499,1895.34 187.832,1854 187.5,1812.5C 208.167,1812.5 228.833,1812.5 249.5,1812.5 Z"/></g>
<g><path style="opacity:1" fill="#310052" d="M 249.5,1812.5 C 270.5,1812.5 291.5,1812.5 312.5,1812.5C 312.5,1874.83 312.5,1937.17 312.5,1999.5C 291.5,1999.5 270.5,1999.5 249.5,1999.5C 249.5,1937.17 249.5,1874.83 249.5,1812.5 Z"/></g>
<g><path style="opacity:1" fill="#022c10" d="M 1061.5,1812.5 C 1061.5,1833.17 1061.5,1853.83 1061.5,1874.5C 1103.17,1874.5 1144.83,1874.5 1186.5,1874.5C 1186.5,1895.17 1186.5,1915.83 1186.5,1936.5C 1144.83,1936.5 1103.17,1936.5 1061.5,1936.5C 1061.5,1999.17 1061.5,2061.83 1061.5,2124.5C 1040.83,2124.5 1020.17,2124.5 999.5,2124.5C 999.5,2061.83 999.5,1999.17 999.5,1936.5C 978.833,1936.5 958.167,1936.5 937.5,1936.5C 937.5,1895.17 937.5,1853.83 937.5,1812.5C 978.833,1812.5 1020.17,1812.5 1061.5,1812.5 Z"/></g>
<g><path style="opacity:1" fill="#310052" d="M 1061.5,1812.5 C 1103.17,1812.5 1144.83,1812.5 1186.5,1812.5C 1186.5,1833.17 1186.5,1853.83 1186.5,1874.5C 1144.83,1874.5 1103.17,1874.5 1061.5,1874.5C 1061.5,1853.83 1061.5,1833.17 1061.5,1812.5 Z"/></g>
<g><path style="opacity:1" fill="#eddec7" d="M 1874.5,1874.5 C 1853.83,1874.5 1833.17,1874.5 1812.5,1874.5C 1791.5,1874.5 1770.5,1874.5 1749.5,1874.5C 1749.5,1853.83 1749.5,1833.17 1749.5,1812.5C 1791.17,1812.5 1832.83,1812.5 1874.5,1812.5C 1874.5,1833.17 1874.5,1853.83 1874.5,1874.5 Z"/></g>
<g><path style="opacity:1" fill="#eddec7" d="M 2186.5,1874.5 C 2165.83,1874.5 2145.17,1874.5 2124.5,1874.5C 2124.5,1853.83 2124.5,1833.17 2124.5,1812.5C 2166.17,1812.5 2207.83,1812.5 2249.5,1812.5C 2249.5,1833.17 2249.5,1853.83 2249.5,1874.5C 2228.5,1874.5 2207.5,1874.5 2186.5,1874.5 Z"/></g>
<g><path style="opacity:1" fill="#022c11" d="M 3061.5,1936.5 C 3040.83,1936.5 3020.17,1936.5 2999.5,1936.5C 2999.5,1999.17 2999.5,2061.83 2999.5,2124.5C 2978.83,2124.5 2958.17,2124.5 2937.5,2124.5C 2937.5,2061.83 2937.5,1999.17 2937.5,1936.5C 2895.83,1936.5 2854.17,1936.5 2812.5,1936.5C 2812.5,1915.83 2812.5,1895.17 2812.5,1874.5C 2854.17,1874.5 2895.83,1874.5 2937.5,1874.5C 2937.5,1853.83 2937.5,1833.17 2937.5,1812.5C 2978.83,1812.5 3020.17,1812.5 3061.5,1812.5C 3061.5,1853.83 3061.5,1895.17 3061.5,1936.5 Z"/></g>
<g><path style="opacity:1" fill="#310052" d="M 3686.5,1812.5 C 3707.5,1812.5 3728.5,1812.5 3749.5,1812.5C 3749.5,1874.83 3749.5,1937.17 3749.5,1999.5C 3728.5,1999.5 3707.5,1999.5 3686.5,1999.5C 3686.5,1937.17 3686.5,1874.83 3686.5,1812.5 Z"/></g>
<g><path style="opacity:1" fill="#450072" d="M 3749.5,1812.5 C 3770.17,1812.5 3790.83,1812.5 3811.5,1812.5C 3811.5,1854.17 3811.5,1895.83 3811.5,1937.5C 3832.5,1937.5 3853.5,1937.5 3874.5,1937.5C 3874.5,1999.83 3874.5,2062.17 3874.5,2124.5C 3895.17,2124.5 3915.83,2124.5 3936.5,2124.5C 3936.5,2228.5 3936.5,2332.5 3936.5,2436.5C 3915.83,2436.5 3895.17,2436.5 3874.5,2436.5C 3874.5,2374.17 3874.5,2311.83 3874.5,2249.5C 3853.83,2249.5 3833.17,2249.5 3812.5,2249.5C 3812.17,2249.5 3811.83,2249.5 3811.5,2249.5C 3811.5,2166.17 3811.5,2082.83 3811.5,1999.5C 3790.83,1999.5 3770.17,1999.5 3749.5,1999.5C 3749.5,1937.17 3749.5,1874.83 3749.5,1812.5 Z"/></g>
<g><path style="opacity:1" fill="#310052" d="M 686.5,1874.5 C 686.5,2061.83 686.5,2249.17 686.5,2436.5C 666.007,2437.5 645.34,2437.83 624.5,2437.5C 624.5,2437.17 624.5,2436.83 624.5,2436.5C 624.5,2249.17 624.5,2061.83 624.5,1874.5C 645.167,1874.5 665.833,1874.5 686.5,1874.5 Z"/></g>
<g><path style="opacity:1" fill="#310051" d="M 1186.5,1874.5 C 1186.83,1874.5 1187.17,1874.5 1187.5,1874.5C 1228.83,1874.5 1270.17,1874.5 1311.5,1874.5C 1311.5,1895.5 1311.5,1916.5 1311.5,1937.5C 1270.17,1937.5 1228.83,1937.5 1187.5,1937.5C 1187.5,1936.83 1187.17,1936.5 1186.5,1936.5C 1186.5,1915.83 1186.5,1895.17 1186.5,1874.5 Z"/></g>
<g><path style="opacity:1" fill="#fdfbf8" d="M 1812.5,1874.5 C 1833.17,1874.5 1853.83,1874.5 1874.5,1874.5C 1874.5,1895.17 1874.5,1915.83 1874.5,1936.5C 1853.83,1936.5 1833.17,1936.5 1812.5,1936.5C 1812.5,1915.83 1812.5,1895.17 1812.5,1874.5 Z"/></g>
<g><path style="opacity:1" fill="#eddec7" d="M 1874.5,1874.5 C 1895.17,1874.5 1915.83,1874.5 1936.5,1874.5C 1936.5,1895.17 1936.5,1915.83 1936.5,1936.5C 1915.83,1936.5 1895.17,1936.5 1874.5,1936.5C 1874.5,1915.83 1874.5,1895.17 1874.5,1874.5 Z"/></g>
<g><path style="opacity:1" fill="#eddec7" d="M 2124.5,1874.5 C 2124.5,1895.17 2124.5,1915.83 2124.5,1936.5C 2103.83,1936.5 2083.17,1936.5 2062.5,1936.5C 2062.5,1915.83 2062.5,1895.17 2062.5,1874.5C 2083.17,1874.5 2103.83,1874.5 2124.5,1874.5 Z"/></g>
<g><path style="opacity:1" fill="#fcfbf8" d="M 2124.5,1874.5 C 2145.17,1874.5 2165.83,1874.5 2186.5,1874.5C 2186.5,1895.17 2186.5,1915.83 2186.5,1936.5C 2165.83,1936.5 2145.17,1936.5 2124.5,1936.5C 2124.5,1915.83 2124.5,1895.17 2124.5,1874.5 Z"/></g>
<g><path style="opacity:0.989" fill="#320052" d="M 124.5,1936.5 C 124.5,1999.17 124.5,2061.83 124.5,2124.5C 103.833,2124.5 83.1667,2124.5 62.5,2124.5C 62.1667,2124.5 61.8333,2124.5 61.5,2124.5C 61.5,2061.83 61.5,1999.17 61.5,1936.5C 82.5,1936.5 103.5,1936.5 124.5,1936.5 Z"/></g>
<g><path style="opacity:1" fill="#3b0062" d="M 1311.5,1874.5 C 1312.5,1894.99 1312.83,1915.66 1312.5,1936.5C 1354.17,1936.5 1395.83,1936.5 1437.5,1936.5C 1437.5,1957.5 1437.5,1978.5 1437.5,1999.5C 1437.17,1999.5 1436.83,1999.5 1436.5,1999.5C 1436.5,1978.83 1436.5,1958.17 1436.5,1937.5C 1394.83,1937.5 1353.17,1937.5 1311.5,1937.5C 1311.5,1916.5 1311.5,1895.5 1311.5,1874.5 Z"/></g>
<g><path style="opacity:1" fill="#04451a" d="M 874.5,1999.5 C 874.5,2041.17 874.5,2082.83 874.5,2124.5C 895.167,2124.5 915.833,2124.5 936.5,2124.5C 936.168,2187 936.501,2249.34 937.5,2311.5C 937.5,2311.83 937.5,2312.17 937.5,2312.5C 937.5,2333.17 937.5,2353.83 937.5,2374.5C 936.503,2354.01 936.169,2333.34 936.5,2312.5C 915.833,2312.5 895.167,2312.5 874.5,2312.5C 874.5,2291.5 874.5,2270.5 874.5,2249.5C 812.167,2249.5 749.833,2249.5 687.5,2249.5C 687.5,2166.17 687.5,2082.83 687.5,1999.5C 708.167,1999.5 728.833,1999.5 749.5,1999.5C 749.5,1978.83 749.5,1958.17 749.5,1937.5C 770.167,1937.5 790.833,1937.5 811.5,1937.5C 811.5,1958.17 811.5,1978.83 811.5,1999.5C 832.5,1999.5 853.5,1999.5 874.5,1999.5 Z"/></g>
<g><path style="opacity:1" fill="#450072" d="M 874.5,1937.5 C 895.167,1937.5 915.833,1937.5 936.5,1937.5C 936.5,1999.83 936.5,2062.17 936.5,2124.5C 915.833,2124.5 895.167,2124.5 874.5,2124.5C 874.5,2082.83 874.5,2041.17 874.5,1999.5C 874.5,1978.83 874.5,1958.17 874.5,1937.5 Z"/></g>
<g><path style="opacity:1" fill="#331156" d="M 812.5,1936.5 C 833.167,1936.5 853.833,1936.5 874.5,1936.5C 895.5,1936.5 916.5,1936.5 937.5,1936.5C 937.5,1999.17 937.5,2061.83 937.5,2124.5C 937.5,2186.83 937.5,2249.17 937.5,2311.5C 936.501,2249.34 936.168,2187 936.5,2124.5C 936.5,2062.17 936.5,1999.83 936.5,1937.5C 915.833,1937.5 895.167,1937.5 874.5,1937.5C 853.66,1937.83 832.993,1937.5 812.5,1936.5 Z"/></g>
<g><path style="opacity:1" fill="#310052" d="M 937.5,1936.5 C 958.167,1936.5 978.833,1936.5 999.5,1936.5C 999.5,1999.17 999.5,2061.83 999.5,2124.5C 978.833,2124.5 958.167,2124.5 937.5,2124.5C 937.5,2061.83 937.5,1999.17 937.5,1936.5 Z"/></g>
<g><path style="opacity:1" fill="#043815" d="M 1186.5,1936.5 C 1187.17,1936.5 1187.5,1936.83 1187.5,1937.5C 1187.5,1958.17 1187.5,1978.83 1187.5,1999.5C 1186.5,1979.01 1186.17,1958.34 1186.5,1937.5C 1145.17,1937.5 1103.83,1937.5 1062.5,1937.5C 1062.5,1999.83 1062.5,2062.17 1062.5,2124.5C 1062.17,2124.5 1061.83,2124.5 1061.5,2124.5C 1061.5,2061.83 1061.5,1999.17 1061.5,1936.5C 1103.17,1936.5 1144.83,1936.5 1186.5,1936.5 Z"/></g>
<g><path style="opacity:1" fill="#04451a" d="M 1187.5,1999.5 C 1228.83,1999.5 1270.17,1999.5 1311.5,1999.5C 1311.5,2020.5 1311.5,2041.5 1311.5,2062.5C 1353.17,2062.5 1394.83,2062.5 1436.5,2062.5C 1436.17,2083.34 1436.5,2104.01 1437.5,2124.5C 1458.17,2124.5 1478.83,2124.5 1499.5,2124.5C 1520.17,2124.5 1540.83,2124.5 1561.5,2124.5C 1561.17,2145.41 1561.51,2166.24 1562.5,2187C 1583.16,2187.5 1603.83,2187.67 1624.5,2187.5C 1624.5,2208.17 1624.5,2228.83 1624.5,2249.5C 1624.5,2311.83 1624.5,2374.17 1624.5,2436.5C 1603.83,2436.5 1583.17,2436.5 1562.5,2436.5C 1562.5,2415.83 1562.5,2395.17 1562.5,2374.5C 1541.5,2374.5 1520.5,2374.5 1499.5,2374.5C 1499.5,2353.5 1499.5,2332.5 1499.5,2311.5C 1416.17,2311.5 1332.83,2311.5 1249.5,2311.5C 1249.5,2332.5 1249.5,2353.5 1249.5,2374.5C 1228.5,2374.5 1207.5,2374.5 1186.5,2374.5C 1186.5,2395.17 1186.5,2415.83 1186.5,2436.5C 1165.83,2436.5 1145.17,2436.5 1124.5,2436.5C 1124.5,2394.83 1124.5,2353.17 1124.5,2311.5C 1103.83,2311.5 1083.17,2311.5 1062.5,2311.5C 1062.5,2249.17 1062.5,2186.83 1062.5,2124.5C 1062.5,2062.17 1062.5,1999.83 1062.5,1937.5C 1103.83,1937.5 1145.17,1937.5 1186.5,1937.5C 1186.17,1958.34 1186.5,1979.01 1187.5,1999.5 Z"/></g>
<g><path style="opacity:1" fill="#022c11" d="M 1187.5,1937.5 C 1228.83,1937.5 1270.17,1937.5 1311.5,1937.5C 1311.5,1958.17 1311.5,1978.83 1311.5,1999.5C 1270.17,1999.5 1228.83,1999.5 1187.5,1999.5C 1187.5,1978.83 1187.5,1958.17 1187.5,1937.5 Z"/></g>
<g><path style="opacity:1" fill="#310052" d="M 1311.5,1937.5 C 1353.17,1937.5 1394.83,1937.5 1436.5,1937.5C 1436.5,1958.17 1436.5,1978.83 1436.5,1999.5C 1395.17,1999.5 1353.83,1999.5 1312.5,1999.5C 1312.17,1999.5 1311.83,1999.5 1311.5,1999.5C 1311.5,1978.83 1311.5,1958.17 1311.5,1937.5 Z"/></g>
<g><path style="opacity:1" fill="#310052" d="M 2812.5,1874.5 C 2812.5,1895.17 2812.5,1915.83 2812.5,1936.5C 2811.83,1936.5 2811.5,1936.83 2811.5,1937.5C 2770.17,1937.5 2728.83,1937.5 2687.5,1937.5C 2687.5,1958.17 2687.5,1978.83 2687.5,1999.5C 2687.17,1999.5 2686.83,1999.5 2686.5,1999.5C 2645.17,1999.5 2603.83,1999.5 2562.5,1999.5C 2562.5,1978.5 2562.5,1957.5 2562.5,1936.5C 2603.83,1936.5 2645.17,1936.5 2686.5,1936.5C 2686.5,1915.83 2686.5,1895.17 2686.5,1874.5C 2728.5,1874.5 2770.5,1874.5 2812.5,1874.5 Z"/></g>
<g><path style="opacity:1" fill="#022c11" d="M 2811.5,1937.5 C 2811.5,1958.17 2811.5,1978.83 2811.5,1999.5C 2770.17,1999.5 2728.83,1999.5 2687.5,1999.5C 2687.5,1978.83 2687.5,1958.17 2687.5,1937.5C 2728.83,1937.5 2770.17,1937.5 2811.5,1937.5 Z"/></g>
<g><path style="opacity:1" fill="#04451a" d="M 2936.5,2124.5 C 2936.5,2186.83 2936.5,2249.17 2936.5,2311.5C 2915.83,2311.5 2895.17,2311.5 2874.5,2311.5C 2874.5,2353.17 2874.5,2394.83 2874.5,2436.5C 2853.83,2436.5 2833.17,2436.5 2812.5,2436.5C 2812.5,2415.83 2812.5,2395.17 2812.5,2374.5C 2791.5,2374.5 2770.5,2374.5 2749.5,2374.5C 2749.5,2353.5 2749.5,2332.5 2749.5,2311.5C 2666.17,2311.5 2582.83,2311.5 2499.5,2311.5C 2499.5,2332.5 2499.5,2353.5 2499.5,2374.5C 2478.5,2374.5 2457.5,2374.5 2436.5,2374.5C 2436.5,2395.17 2436.5,2415.83 2436.5,2436.5C 2415.83,2436.5 2395.17,2436.5 2374.5,2436.5C 2374.5,2374.17 2374.5,2311.83 2374.5,2249.5C 2374.5,2228.83 2374.5,2208.17 2374.5,2187.5C 2395.17,2187.67 2415.84,2187.5 2436.5,2187C 2437.49,2166.24 2437.83,2145.41 2437.5,2124.5C 2458.17,2124.5 2478.83,2124.5 2499.5,2124.5C 2520.17,2124.5 2540.83,2124.5 2561.5,2124.5C 2562.5,2104.01 2562.83,2083.34 2562.5,2062.5C 2604.17,2062.5 2645.83,2062.5 2687.5,2062.5C 2687.5,2041.5 2687.5,2020.5 2687.5,1999.5C 2728.83,1999.5 2770.17,1999.5 2811.5,1999.5C 2812.5,1979.01 2812.83,1958.34 2812.5,1937.5C 2853.83,1937.5 2895.17,1937.5 2936.5,1937.5C 2936.5,1999.83 2936.5,2062.17 2936.5,2124.5 Z"/></g>
<g><path style="opacity:1" fill="#043815" d="M 2812.5,1936.5 C 2854.17,1936.5 2895.83,1936.5 2937.5,1936.5C 2937.5,1999.17 2937.5,2061.83 2937.5,2124.5C 2937.17,2124.5 2936.83,2124.5 2936.5,2124.5C 2936.5,2062.17 2936.5,1999.83 2936.5,1937.5C 2895.17,1937.5 2853.83,1937.5 2812.5,1937.5C 2812.83,1958.34 2812.5,1979.01 2811.5,1999.5C 2811.5,1978.83 2811.5,1958.17 2811.5,1937.5C 2811.5,1936.83 2811.83,1936.5 2812.5,1936.5 Z"/></g>
<g><path style="opacity:1" fill="#331156" d="M 3061.5,1936.5 C 3082.5,1936.5 3103.5,1936.5 3124.5,1936.5C 3145.17,1936.5 3165.83,1936.5 3186.5,1936.5C 3166.01,1937.5 3145.34,1937.83 3124.5,1937.5C 3103.83,1937.5 3083.17,1937.5 3062.5,1937.5C 3062.5,1999.83 3062.5,2062.17 3062.5,2124.5C 3062.83,2187 3062.5,2249.34 3061.5,2311.5C 3061.5,2249.17 3061.5,2186.83 3061.5,2124.5C 3061.5,2061.83 3061.5,1999.17 3061.5,1936.5 Z"/></g>
<g><path style="opacity:1" fill="#450072" d="M 3124.5,1937.5 C 3124.5,1958.17 3124.5,1978.83 3124.5,1999.5C 3124.5,2041.17 3124.5,2082.83 3124.5,2124.5C 3103.83,2124.5 3083.17,2124.5 3062.5,2124.5C 3062.5,2062.17 3062.5,1999.83 3062.5,1937.5C 3083.17,1937.5 3103.83,1937.5 3124.5,1937.5 Z"/></g>
<g><path style="opacity:1" fill="#04451a" d="M 3311.5,2249.5 C 3249.17,2249.5 3186.83,2249.5 3124.5,2249.5C 3124.5,2270.5 3124.5,2291.5 3124.5,2312.5C 3103.83,2312.5 3083.17,2312.5 3062.5,2312.5C 3062.83,2333.34 3062.5,2354.01 3061.5,2374.5C 3061.5,2353.83 3061.5,2333.17 3061.5,2312.5C 3061.5,2312.17 3061.5,2311.83 3061.5,2311.5C 3062.5,2249.34 3062.83,2187 3062.5,2124.5C 3083.17,2124.5 3103.83,2124.5 3124.5,2124.5C 3124.5,2082.83 3124.5,2041.17 3124.5,1999.5C 3145.5,1999.5 3166.5,1999.5 3187.5,1999.5C 3187.5,1978.83 3187.5,1958.17 3187.5,1937.5C 3208.17,1937.5 3228.83,1937.5 3249.5,1937.5C 3249.5,1958.17 3249.5,1978.83 3249.5,1999.5C 3270.17,1999.5 3290.83,1999.5 3311.5,1999.5C 3311.5,2082.83 3311.5,2166.17 3311.5,2249.5 Z"/></g>
<g><path style="opacity:1" fill="#310052" d="M 2312.5,1749.5 C 2333.17,1749.5 2353.83,1749.5 2374.5,1749.5C 2374.5,1791.17 2374.5,1832.83 2374.5,1874.5C 2416.17,1874.5 2457.83,1874.5 2499.5,1874.5C 2499.5,1895.5 2499.5,1916.5 2499.5,1937.5C 2457.83,1937.5 2416.17,1937.5 2374.5,1937.5C 2374.5,1999.83 2374.5,2062.17 2374.5,2124.5C 2395.5,2124.5 2416.5,2124.5 2437.5,2124.5C 2437.83,2145.41 2437.49,2166.24 2436.5,2187C 2415.84,2187.5 2395.17,2187.67 2374.5,2187.5C 2374.5,2208.17 2374.5,2228.83 2374.5,2249.5C 2353.83,2249.5 2333.17,2249.5 2312.5,2249.5C 2312.5,2082.83 2312.5,1916.17 2312.5,1749.5 Z"/></g>
<g><path style="opacity:1" fill="#310052" d="M 3061.5,1936.5 C 3061.5,1999.17 3061.5,2061.83 3061.5,2124.5C 3040.83,2124.5 3020.17,2124.5 2999.5,2124.5C 2999.5,2061.83 2999.5,1999.17 2999.5,1936.5C 3020.17,1936.5 3040.83,1936.5 3061.5,1936.5 Z"/></g>
<g><path style="opacity:1" fill="#310052" d="M 3312.5,1874.5 C 3333.17,1874.5 3353.83,1874.5 3374.5,1874.5C 3374.5,2061.83 3374.5,2249.17 3374.5,2436.5C 3353.83,2436.5 3333.17,2436.5 3312.5,2436.5C 3312.5,2249.17 3312.5,2061.83 3312.5,1874.5 Z"/></g>
<g><path style="opacity:0.982" fill="#310052" d="M 3874.5,1936.5 C 3895.5,1936.5 3916.5,1936.5 3937.5,1936.5C 3937.5,1999.17 3937.5,2061.83 3937.5,2124.5C 3937.17,2124.5 3936.83,2124.5 3936.5,2124.5C 3915.83,2124.5 3895.17,2124.5 3874.5,2124.5C 3874.5,2062.17 3874.5,1999.83 3874.5,1937.5C 3874.5,1937.17 3874.5,1936.83 3874.5,1936.5 Z"/></g>
<g><path style="opacity:1" fill="#320052" d="M 249.5,1999.5 C 249.5,2061.83 249.5,2124.17 249.5,2186.5C 249.5,2207.5 249.5,2228.5 249.5,2249.5C 228.833,2249.5 208.167,2249.5 187.5,2249.5C 187.5,2166.17 187.5,2082.83 187.5,1999.5C 208.167,1999.5 228.833,1999.5 249.5,1999.5 Z"/></g>
<g><path style="opacity:1" fill="#022c11" d="M 1312.5,1999.5 C 1353.83,1999.5 1395.17,1999.5 1436.5,1999.5C 1436.5,2020.17 1436.5,2040.83 1436.5,2061.5C 1395.17,2061.5 1353.83,2061.5 1312.5,2061.5C 1312.5,2040.83 1312.5,2020.17 1312.5,1999.5 Z"/></g>
<g><path style="opacity:1" fill="#310151" d="M 1436.5,1999.5 C 1436.83,1999.5 1437.17,1999.5 1437.5,1999.5C 1458.17,1999.5 1478.83,1999.5 1499.5,1999.5C 1499.5,2020.17 1499.5,2040.83 1499.5,2061.5C 1499.5,2061.83 1499.5,2062.17 1499.5,2062.5C 1478.83,2062.5 1458.17,2062.5 1437.5,2062.5C 1437.5,2061.83 1437.17,2061.5 1436.5,2061.5C 1436.5,2040.83 1436.5,2020.17 1436.5,1999.5 Z"/></g>
<g><path style="opacity:1" fill="#300151" d="M 2562.5,1999.5 C 2562.5,2020.17 2562.5,2040.83 2562.5,2061.5C 2561.83,2061.5 2561.5,2061.83 2561.5,2062.5C 2540.83,2062.5 2520.17,2062.5 2499.5,2062.5C 2499.5,2041.5 2499.5,2020.5 2499.5,1999.5C 2520.5,1999.5 2541.5,1999.5 2562.5,1999.5 Z"/></g>
<g><path style="opacity:1" fill="#022c11" d="M 2562.5,1999.5 C 2603.83,1999.5 2645.17,1999.5 2686.5,1999.5C 2686.5,2020.17 2686.5,2040.83 2686.5,2061.5C 2645.17,2061.5 2603.83,2061.5 2562.5,2061.5C 2562.5,2040.83 2562.5,2020.17 2562.5,1999.5 Z"/></g>
<g><path style="opacity:1" fill="#310052" d="M 3749.5,1999.5 C 3770.17,1999.5 3790.83,1999.5 3811.5,1999.5C 3811.5,2082.83 3811.5,2166.17 3811.5,2249.5C 3790.83,2249.5 3770.17,2249.5 3749.5,2249.5C 3749.5,2228.5 3749.5,2207.5 3749.5,2186.5C 3749.5,2124.17 3749.5,2061.83 3749.5,1999.5 Z"/></g>
<g><path style="opacity:1" fill="#043815" d="M 1311.5,1999.5 C 1311.83,1999.5 1312.17,1999.5 1312.5,1999.5C 1312.5,2020.17 1312.5,2040.83 1312.5,2061.5C 1353.83,2061.5 1395.17,2061.5 1436.5,2061.5C 1437.17,2061.5 1437.5,2061.83 1437.5,2062.5C 1437.5,2083.17 1437.5,2103.83 1437.5,2124.5C 1436.5,2104.01 1436.17,2083.34 1436.5,2062.5C 1394.83,2062.5 1353.17,2062.5 1311.5,2062.5C 1311.5,2041.5 1311.5,2020.5 1311.5,1999.5 Z"/></g>
<g><path style="opacity:1" fill="#043815" d="M 2686.5,1999.5 C 2686.83,1999.5 2687.17,1999.5 2687.5,1999.5C 2687.5,2020.5 2687.5,2041.5 2687.5,2062.5C 2645.83,2062.5 2604.17,2062.5 2562.5,2062.5C 2562.83,2083.34 2562.5,2104.01 2561.5,2124.5C 2561.5,2103.83 2561.5,2083.17 2561.5,2062.5C 2561.5,2061.83 2561.83,2061.5 2562.5,2061.5C 2603.83,2061.5 2645.17,2061.5 2686.5,2061.5C 2686.5,2040.83 2686.5,2020.17 2686.5,1999.5 Z"/></g>
<g><path style="opacity:1" fill="#022c11" d="M 1437.5,2062.5 C 1458.17,2062.5 1478.83,2062.5 1499.5,2062.5C 1499.5,2083.17 1499.5,2103.83 1499.5,2124.5C 1478.83,2124.5 1458.17,2124.5 1437.5,2124.5C 1437.5,2103.83 1437.5,2083.17 1437.5,2062.5 Z"/></g>
<g><path style="opacity:1" fill="#320053" d="M 1499.5,2061.5 C 1520.5,2061.5 1541.5,2061.5 1562.5,2061.5C 1562.5,2082.5 1562.5,2103.5 1562.5,2124.5C 1562.17,2124.5 1561.83,2124.5 1561.5,2124.5C 1540.83,2124.5 1520.17,2124.5 1499.5,2124.5C 1499.5,2103.83 1499.5,2083.17 1499.5,2062.5C 1499.5,2062.17 1499.5,2061.83 1499.5,2061.5 Z"/></g>
<g><path style="opacity:1" fill="#fdfcfe" d="M 1936.5,2062.5 C 1936.5,2103.83 1936.5,2145.17 1936.5,2186.5C 1915.83,2186.5 1895.17,2186.5 1874.5,2186.5C 1874.5,2145.17 1874.5,2103.83 1874.5,2062.5C 1895.17,2062.5 1915.83,2062.5 1936.5,2062.5 Z"/></g>
<g><path style="opacity:1" fill="#350355" d="M 1936.5,2062.5 C 1978.5,2062.5 2020.5,2062.5 2062.5,2062.5C 2062.5,2103.83 2062.5,2145.17 2062.5,2186.5C 2061.5,2166.01 2061.17,2145.34 2061.5,2124.5C 2020.17,2124.5 1978.83,2124.5 1937.5,2124.5C 1937.83,2145.34 1937.5,2166.01 1936.5,2186.5C 1936.5,2145.17 1936.5,2103.83 1936.5,2062.5 Z"/></g>
<g><path style="opacity:1" fill="#fdfcfe" d="M 2062.5,2062.5 C 2083.17,2062.5 2103.83,2062.5 2124.5,2062.5C 2124.5,2103.83 2124.5,2145.17 2124.5,2186.5C 2103.83,2186.5 2083.17,2186.5 2062.5,2186.5C 2062.5,2145.17 2062.5,2103.83 2062.5,2062.5 Z"/></g>
<g><path style="opacity:1" fill="#310052" d="M 2499.5,2062.5 C 2499.5,2083.17 2499.5,2103.83 2499.5,2124.5C 2478.83,2124.5 2458.17,2124.5 2437.5,2124.5C 2437.5,2103.83 2437.5,2083.17 2437.5,2062.5C 2458.17,2062.5 2478.83,2062.5 2499.5,2062.5 Z"/></g>
<g><path style="opacity:1" fill="#022c11" d="M 2499.5,2062.5 C 2520.17,2062.5 2540.83,2062.5 2561.5,2062.5C 2561.5,2083.17 2561.5,2103.83 2561.5,2124.5C 2540.83,2124.5 2520.17,2124.5 2499.5,2124.5C 2499.5,2103.83 2499.5,2083.17 2499.5,2062.5 Z"/></g>
<g><path style="opacity:0.998" fill="#310052" d="M -0.5,2124.5 C 20.1667,2124.5 40.8333,2124.5 61.5,2124.5C 61.5,2228.83 61.5,2333.17 61.5,2437.5C 82.5,2437.5 103.5,2437.5 124.5,2437.5C 124.5,2478.83 124.5,2520.17 124.5,2561.5C 124.5,2561.83 124.5,2562.17 124.5,2562.5C 124.5,2604.17 124.5,2645.83 124.5,2687.5C 124.5,2729.17 124.5,2770.83 124.5,2812.5C 103.833,2812.5 83.1667,2812.5 62.5,2812.5C 62.5,2854.17 62.5,2895.83 62.5,2937.5C 41.5,2937.5 20.5,2937.5 -0.5,2937.5C -0.5,2666.5 -0.5,2395.5 -0.5,2124.5 Z"/></g>
<g><path style="opacity:1" fill="#3b0062" d="M 61.5,2124.5 C 61.8333,2124.5 62.1667,2124.5 62.5,2124.5C 62.5,2228.5 62.5,2332.5 62.5,2436.5C 83.1667,2436.5 103.833,2436.5 124.5,2436.5C 124.5,2436.83 124.5,2437.17 124.5,2437.5C 103.5,2437.5 82.5,2437.5 61.5,2437.5C 61.5,2333.17 61.5,2228.83 61.5,2124.5 Z"/></g>
<g><path style="opacity:1" fill="#066526" d="M 561.5,2186.5 C 561.5,2249.17 561.5,2311.83 561.5,2374.5C 540.833,2374.5 520.167,2374.5 499.5,2374.5C 499.5,2395.17 499.5,2415.83 499.5,2436.5C 478.833,2436.5 458.167,2436.5 437.5,2436.5C 437.831,2415.66 437.497,2394.99 436.5,2374.5C 395.167,2374.5 353.833,2374.5 312.5,2374.5C 311.503,2394.99 311.169,2415.66 311.5,2436.5C 290.66,2436.17 269.993,2436.5 249.5,2437.5C 249.5,2458.17 249.5,2478.83 249.5,2499.5C 228.833,2499.5 208.167,2499.5 187.5,2499.5C 186.503,2519.99 186.169,2540.66 186.5,2561.5C 165.833,2561.5 145.167,2561.5 124.5,2561.5C 124.5,2520.17 124.5,2478.83 124.5,2437.5C 145.409,2437.83 166.242,2437.49 187,2436.5C 187.5,2374.17 187.667,2311.83 187.5,2249.5C 208.167,2249.5 228.833,2249.5 249.5,2249.5C 249.5,2228.5 249.5,2207.5 249.5,2186.5C 270.167,2186.5 290.833,2186.5 311.5,2186.5C 311.5,2165.83 311.5,2145.17 311.5,2124.5C 374.167,2124.5 436.833,2124.5 499.5,2124.5C 499.5,2145.17 499.5,2165.83 499.5,2186.5C 520.167,2186.5 540.833,2186.5 561.5,2186.5 Z"/></g>
<g><path style="opacity:1" fill="#450073" d="M 937.5,2124.5 C 958.167,2124.5 978.833,2124.5 999.5,2124.5C 999.5,2186.83 999.5,2249.17 999.5,2311.5C 978.833,2311.5 958.167,2311.5 937.5,2311.5C 937.5,2249.17 937.5,2186.83 937.5,2124.5 Z"/></g>
<g><path style="opacity:1" fill="#310052" d="M 999.5,2124.5 C 1020.17,2124.5 1040.83,2124.5 1061.5,2124.5C 1061.83,2124.5 1062.17,2124.5 1062.5,2124.5C 1062.5,2186.83 1062.5,2249.17 1062.5,2311.5C 1041.5,2311.5 1020.5,2311.5 999.5,2311.5C 999.5,2249.17 999.5,2186.83 999.5,2124.5 Z"/></g>
<g><path style="opacity:1" fill="#310052" d="M 2936.5,2124.5 C 2936.83,2124.5 2937.17,2124.5 2937.5,2124.5C 2958.17,2124.5 2978.83,2124.5 2999.5,2124.5C 2999.5,2186.83 2999.5,2249.17 2999.5,2311.5C 2978.5,2311.5 2957.5,2311.5 2936.5,2311.5C 2936.5,2249.17 2936.5,2186.83 2936.5,2124.5 Z"/></g>
<g><path style="opacity:1" fill="#450072" d="M 2999.5,2124.5 C 3020.17,2124.5 3040.83,2124.5 3061.5,2124.5C 3061.5,2186.83 3061.5,2249.17 3061.5,2311.5C 3040.83,2311.5 3020.17,2311.5 2999.5,2311.5C 2999.5,2249.17 2999.5,2186.83 2999.5,2124.5 Z"/></g>
<g><path style="opacity:1" fill="#066526" d="M 3749.5,2186.5 C 3749.5,2207.5 3749.5,2228.5 3749.5,2249.5C 3770.17,2249.5 3790.83,2249.5 3811.5,2249.5C 3811.83,2249.5 3812.17,2249.5 3812.5,2249.5C 3812.5,2311.83 3812.5,2374.17 3812.5,2436.5C 3833.17,2436.5 3853.83,2436.5 3874.5,2436.5C 3874.5,2436.83 3874.5,2437.17 3874.5,2437.5C 3874.5,2478.83 3874.5,2520.17 3874.5,2561.5C 3853.83,2561.5 3833.17,2561.5 3812.5,2561.5C 3812.83,2540.66 3812.5,2519.99 3811.5,2499.5C 3790.83,2499.5 3770.17,2499.5 3749.5,2499.5C 3749.5,2478.83 3749.5,2458.17 3749.5,2437.5C 3729.01,2436.5 3708.34,2436.17 3687.5,2436.5C 3687.83,2415.66 3687.5,2394.99 3686.5,2374.5C 3645.17,2374.5 3603.83,2374.5 3562.5,2374.5C 3561.5,2394.99 3561.17,2415.66 3561.5,2436.5C 3540.83,2436.5 3520.17,2436.5 3499.5,2436.5C 3499.5,2415.83 3499.5,2395.17 3499.5,2374.5C 3478.83,2374.5 3458.17,2374.5 3437.5,2374.5C 3437.5,2311.83 3437.5,2249.17 3437.5,2186.5C 3458.17,2186.5 3478.83,2186.5 3499.5,2186.5C 3499.5,2165.83 3499.5,2145.17 3499.5,2124.5C 3562.17,2124.5 3624.83,2124.5 3687.5,2124.5C 3687.5,2145.17 3687.5,2165.83 3687.5,2186.5C 3708.17,2186.5 3728.83,2186.5 3749.5,2186.5 Z"/></g>
<g><path style="opacity:1" fill="#3a0062" d="M 3936.5,2124.5 C 3936.83,2124.5 3937.17,2124.5 3937.5,2124.5C 3937.5,2228.83 3937.5,2333.17 3937.5,2437.5C 3916.5,2437.5 3895.5,2437.5 3874.5,2437.5C 3874.5,2437.17 3874.5,2436.83 3874.5,2436.5C 3895.17,2436.5 3915.83,2436.5 3936.5,2436.5C 3936.5,2332.5 3936.5,2228.5 3936.5,2124.5 Z"/></g>
<g><path style="opacity:0.996" fill="#310052" d="M 3937.5,2124.5 C 3958.17,2124.5 3978.83,2124.5 3999.5,2124.5C 3999.5,2395.5 3999.5,2666.5 3999.5,2937.5C 3978.5,2937.5 3957.5,2937.5 3936.5,2937.5C 3936.5,2895.83 3936.5,2854.17 3936.5,2812.5C 3915.83,2812.5 3895.17,2812.5 3874.5,2812.5C 3874.5,2770.83 3874.5,2729.17 3874.5,2687.5C 3874.5,2645.83 3874.5,2604.17 3874.5,2562.5C 3874.5,2562.17 3874.5,2561.83 3874.5,2561.5C 3874.5,2520.17 3874.5,2478.83 3874.5,2437.5C 3895.5,2437.5 3916.5,2437.5 3937.5,2437.5C 3937.5,2333.17 3937.5,2228.83 3937.5,2124.5 Z"/></g>
<g><path style="opacity:1" fill="#310152" d="M 187.5,2249.5 C 187.667,2311.83 187.5,2374.17 187,2436.5C 166.242,2437.49 145.409,2437.83 124.5,2437.5C 124.5,2437.17 124.5,2436.83 124.5,2436.5C 124.5,2374.17 124.5,2311.83 124.5,2249.5C 145.5,2249.5 166.5,2249.5 187.5,2249.5 Z"/></g>
<g><path style="opacity:1" fill="#066526" d="M 687.5,2249.5 C 749.833,2249.5 812.167,2249.5 874.5,2249.5C 874.5,2270.5 874.5,2291.5 874.5,2312.5C 895.167,2312.5 915.833,2312.5 936.5,2312.5C 936.169,2333.34 936.503,2354.01 937.5,2374.5C 958.167,2374.5 978.833,2374.5 999.5,2374.5C 999.5,2395.17 999.5,2415.83 999.5,2436.5C 1019.99,2437.5 1040.66,2437.83 1061.5,2437.5C 1061.17,2479 1061.5,2520.34 1062.5,2561.5C 1082.99,2562.5 1103.66,2562.83 1124.5,2562.5C 1124.5,2583.17 1124.5,2603.83 1124.5,2624.5C 978.833,2624.5 833.167,2624.5 687.5,2624.5C 686.503,2644.99 686.169,2665.66 686.5,2686.5C 665.833,2686.5 645.167,2686.5 624.5,2686.5C 624.5,2603.5 624.5,2520.5 624.5,2437.5C 645.34,2437.83 666.007,2437.5 686.5,2436.5C 687.499,2374.34 687.832,2312 687.5,2249.5 Z"/></g>
<g><path style="opacity:1" fill="#1b002e" d="M 1624.5,2249.5 C 1645.17,2249.5 1665.83,2249.5 1686.5,2249.5C 1686.5,2270.5 1686.5,2291.5 1686.5,2312.5C 1686.5,2395.5 1686.5,2478.5 1686.5,2561.5C 1665.83,2561.5 1645.17,2561.5 1624.5,2561.5C 1624.5,2519.83 1624.5,2478.17 1624.5,2436.5C 1624.5,2374.17 1624.5,2311.83 1624.5,2249.5 Z"/></g>
<g><path style="opacity:1" fill="#1b002e" d="M 2312.5,2249.5 C 2333.17,2249.5 2353.83,2249.5 2374.5,2249.5C 2374.5,2311.83 2374.5,2374.17 2374.5,2436.5C 2374.5,2478.17 2374.5,2519.83 2374.5,2561.5C 2353.83,2561.5 2333.17,2561.5 2312.5,2561.5C 2312.5,2457.5 2312.5,2353.5 2312.5,2249.5 Z"/></g>
<g><path style="opacity:1" fill="#066526" d="M 3311.5,2249.5 C 3311.17,2312 3311.5,2374.34 3312.5,2436.5C 3333.17,2436.5 3353.83,2436.5 3374.5,2436.5C 3374.5,2436.83 3374.5,2437.17 3374.5,2437.5C 3374.5,2520.5 3374.5,2603.5 3374.5,2686.5C 3353.83,2686.5 3333.17,2686.5 3312.5,2686.5C 3312.83,2665.66 3312.5,2644.99 3311.5,2624.5C 3165.83,2624.5 3020.17,2624.5 2874.5,2624.5C 2874.5,2603.83 2874.5,2583.17 2874.5,2562.5C 2895.34,2562.83 2916.01,2562.5 2936.5,2561.5C 2937.5,2520.34 2937.83,2479 2937.5,2437.5C 2958.34,2437.83 2979.01,2437.5 2999.5,2436.5C 2999.5,2415.83 2999.5,2395.17 2999.5,2374.5C 3020.17,2374.5 3040.83,2374.5 3061.5,2374.5C 3062.5,2354.01 3062.83,2333.34 3062.5,2312.5C 3083.17,2312.5 3103.83,2312.5 3124.5,2312.5C 3124.5,2291.5 3124.5,2270.5 3124.5,2249.5C 3186.83,2249.5 3249.17,2249.5 3311.5,2249.5 Z"/></g>
<g><path style="opacity:1" fill="#310052" d="M 3812.5,2249.5 C 3833.17,2249.5 3853.83,2249.5 3874.5,2249.5C 3874.5,2311.83 3874.5,2374.17 3874.5,2436.5C 3853.83,2436.5 3833.17,2436.5 3812.5,2436.5C 3812.5,2374.17 3812.5,2311.83 3812.5,2249.5 Z"/></g>
<g><path style="opacity:1" fill="#044019" d="M 937.5,2312.5 C 958.167,2312.5 978.833,2312.5 999.5,2312.5C 999.5,2333.17 999.5,2353.83 999.5,2374.5C 978.833,2374.5 958.167,2374.5 937.5,2374.5C 937.5,2353.83 937.5,2333.17 937.5,2312.5 Z"/></g>
<g><path style="opacity:1" fill="#450073" d="M 999.5,2312.5 C 1020.17,2312.5 1040.83,2312.5 1061.5,2312.5C 1061.5,2353.83 1061.5,2395.17 1061.5,2436.5C 1040.83,2436.5 1020.17,2436.5 999.5,2436.5C 999.5,2415.83 999.5,2395.17 999.5,2374.5C 999.5,2353.83 999.5,2333.17 999.5,2312.5 Z"/></g>
<g><path style="opacity:1" fill="#311c54" d="M 937.5,2312.5 C 937.5,2312.17 937.5,2311.83 937.5,2311.5C 958.167,2311.5 978.833,2311.5 999.5,2311.5C 1020.5,2311.5 1041.5,2311.5 1062.5,2311.5C 1062.5,2353.17 1062.5,2394.83 1062.5,2436.5C 1083.17,2436.5 1103.83,2436.5 1124.5,2436.5C 1145.17,2436.5 1165.83,2436.5 1186.5,2436.5C 1186.5,2436.83 1186.5,2437.17 1186.5,2437.5C 1165.83,2437.5 1145.17,2437.5 1124.5,2437.5C 1103.83,2437.5 1083.17,2437.5 1062.5,2437.5C 1062.5,2478.83 1062.5,2520.17 1062.5,2561.5C 1061.5,2520.34 1061.17,2479 1061.5,2437.5C 1040.66,2437.83 1019.99,2437.5 999.5,2436.5C 1020.17,2436.5 1040.83,2436.5 1061.5,2436.5C 1061.5,2395.17 1061.5,2353.83 1061.5,2312.5C 1040.83,2312.5 1020.17,2312.5 999.5,2312.5C 978.833,2312.5 958.167,2312.5 937.5,2312.5 Z"/></g>
<g><path style="opacity:1" fill="#310052" d="M 1062.5,2311.5 C 1083.17,2311.5 1103.83,2311.5 1124.5,2311.5C 1124.5,2353.17 1124.5,2394.83 1124.5,2436.5C 1103.83,2436.5 1083.17,2436.5 1062.5,2436.5C 1062.5,2394.83 1062.5,2353.17 1062.5,2311.5 Z"/></g>
<g><path style="opacity:1" fill="#066526" d="M 1624.5,2436.5 C 1624.5,2478.17 1624.5,2519.83 1624.5,2561.5C 1645.17,2561.5 1665.83,2561.5 1686.5,2561.5C 1686.5,2561.83 1686.5,2562.17 1686.5,2562.5C 1686.5,2603.83 1686.5,2645.17 1686.5,2686.5C 1644.83,2686.5 1603.17,2686.5 1561.5,2686.5C 1561.5,2707.5 1561.5,2728.5 1561.5,2749.5C 1499.17,2749.5 1436.83,2749.5 1374.5,2749.5C 1374.5,2770.17 1374.5,2790.83 1374.5,2811.5C 1353.83,2811.5 1333.17,2811.5 1312.5,2811.5C 1312.83,2770 1312.5,2728.66 1311.5,2687.5C 1291.01,2686.5 1270.34,2686.17 1249.5,2686.5C 1249.5,2645.17 1249.5,2603.83 1249.5,2562.5C 1229.01,2561.5 1208.34,2561.17 1187.5,2561.5C 1187.83,2520 1187.5,2478.66 1186.5,2437.5C 1186.5,2437.17 1186.5,2436.83 1186.5,2436.5C 1186.5,2415.83 1186.5,2395.17 1186.5,2374.5C 1207.5,2374.5 1228.5,2374.5 1249.5,2374.5C 1249.5,2353.5 1249.5,2332.5 1249.5,2311.5C 1332.83,2311.5 1416.17,2311.5 1499.5,2311.5C 1499.5,2332.5 1499.5,2353.5 1499.5,2374.5C 1520.5,2374.5 1541.5,2374.5 1562.5,2374.5C 1562.5,2395.17 1562.5,2415.83 1562.5,2436.5C 1583.17,2436.5 1603.83,2436.5 1624.5,2436.5 Z"/></g>
<g><path style="opacity:1" fill="#260040" d="M 1686.5,2312.5 C 1686.83,2312.5 1687.17,2312.5 1687.5,2312.5C 1687.5,2395.5 1687.5,2478.5 1687.5,2561.5C 1708.34,2561.17 1729.01,2561.5 1749.5,2562.5C 1728.83,2562.5 1708.17,2562.5 1687.5,2562.5C 1687.17,2562.5 1686.83,2562.5 1686.5,2562.5C 1686.5,2562.17 1686.5,2561.83 1686.5,2561.5C 1686.5,2478.5 1686.5,2395.5 1686.5,2312.5 Z"/></g>
<g><path style="opacity:1" fill="#310052" d="M 1687.5,2312.5 C 1708.17,2312.5 1728.83,2312.5 1749.5,2312.5C 1749.5,2333.17 1749.5,2353.83 1749.5,2374.5C 1770.17,2374.5 1790.83,2374.5 1811.5,2374.5C 1811.5,2395.5 1811.5,2416.5 1811.5,2437.5C 1936.83,2437.5 2062.17,2437.5 2187.5,2437.5C 2187.5,2416.5 2187.5,2395.5 2187.5,2374.5C 2208.17,2374.5 2228.83,2374.5 2249.5,2374.5C 2249.5,2353.83 2249.5,2333.17 2249.5,2312.5C 2270.17,2312.5 2290.83,2312.5 2311.5,2312.5C 2311.5,2395.5 2311.5,2478.5 2311.5,2561.5C 2290.66,2561.17 2269.99,2561.5 2249.5,2562.5C 2249.5,2624.83 2249.5,2687.17 2249.5,2749.5C 2228.83,2749.5 2208.17,2749.5 2187.5,2749.5C 2186.5,2811.66 2186.17,2874 2186.5,2936.5C 2165.83,2936.5 2145.17,2936.5 2124.5,2936.5C 2124.5,2915.83 2124.5,2895.17 2124.5,2874.5C 2103.5,2874.5 2082.5,2874.5 2061.5,2874.5C 2061.5,2853.83 2061.5,2833.17 2061.5,2812.5C 2020.17,2812.5 1978.83,2812.5 1937.5,2812.5C 1937.5,2833.17 1937.5,2853.83 1937.5,2874.5C 1916.5,2874.5 1895.5,2874.5 1874.5,2874.5C 1874.5,2895.17 1874.5,2915.83 1874.5,2936.5C 1853.83,2936.5 1833.17,2936.5 1812.5,2936.5C 1812.83,2874 1812.5,2811.66 1811.5,2749.5C 1790.83,2749.5 1770.17,2749.5 1749.5,2749.5C 1749.5,2687.17 1749.5,2624.83 1749.5,2562.5C 1729.01,2561.5 1708.34,2561.17 1687.5,2561.5C 1687.5,2478.5 1687.5,2395.5 1687.5,2312.5 Z"/></g>
<g><path style="opacity:1" fill="#270042" d="M 2312.5,2249.5 C 2312.5,2353.5 2312.5,2457.5 2312.5,2561.5C 2312.5,2561.83 2312.5,2562.17 2312.5,2562.5C 2312.17,2562.5 2311.83,2562.5 2311.5,2562.5C 2290.83,2562.5 2270.17,2562.5 2249.5,2562.5C 2269.99,2561.5 2290.66,2561.17 2311.5,2561.5C 2311.5,2478.5 2311.5,2395.5 2311.5,2312.5C 2311.17,2291.33 2311.5,2270.33 2312.5,2249.5 Z"/></g>
<g><path style="opacity:1" fill="#066526" d="M 2812.5,2436.5 C 2811.51,2478.09 2811.17,2519.76 2811.5,2561.5C 2811.5,2561.83 2811.5,2562.17 2811.5,2562.5C 2790.83,2562.5 2770.17,2562.5 2749.5,2562.5C 2749.5,2603.83 2749.5,2645.17 2749.5,2686.5C 2728.66,2686.17 2707.99,2686.5 2687.5,2687.5C 2687.5,2728.83 2687.5,2770.17 2687.5,2811.5C 2687.17,2811.5 2686.83,2811.5 2686.5,2811.5C 2665.83,2811.5 2645.17,2811.5 2624.5,2811.5C 2624.5,2790.83 2624.5,2770.17 2624.5,2749.5C 2562.17,2749.5 2499.83,2749.5 2437.5,2749.5C 2437.5,2728.5 2437.5,2707.5 2437.5,2686.5C 2395.83,2686.5 2354.17,2686.5 2312.5,2686.5C 2312.5,2645.17 2312.5,2603.83 2312.5,2562.5C 2312.5,2562.17 2312.5,2561.83 2312.5,2561.5C 2333.17,2561.5 2353.83,2561.5 2374.5,2561.5C 2374.5,2519.83 2374.5,2478.17 2374.5,2436.5C 2395.17,2436.5 2415.83,2436.5 2436.5,2436.5C 2436.5,2415.83 2436.5,2395.17 2436.5,2374.5C 2457.5,2374.5 2478.5,2374.5 2499.5,2374.5C 2499.5,2353.5 2499.5,2332.5 2499.5,2311.5C 2582.83,2311.5 2666.17,2311.5 2749.5,2311.5C 2749.5,2332.5 2749.5,2353.5 2749.5,2374.5C 2770.5,2374.5 2791.5,2374.5 2812.5,2374.5C 2812.5,2395.17 2812.5,2415.83 2812.5,2436.5 Z"/></g>
<g><path style="opacity:1" fill="#310052" d="M 2936.5,2311.5 C 2936.5,2353.17 2936.5,2394.83 2936.5,2436.5C 2915.83,2436.5 2895.17,2436.5 2874.5,2436.5C 2874.5,2394.83 2874.5,2353.17 2874.5,2311.5C 2895.17,2311.5 2915.83,2311.5 2936.5,2311.5 Z"/></g>
<g><path style="opacity:1" fill="#331b58" d="M 2936.5,2311.5 C 2957.5,2311.5 2978.5,2311.5 2999.5,2311.5C 3020.17,2311.5 3040.83,2311.5 3061.5,2311.5C 3061.5,2311.83 3061.5,2312.17 3061.5,2312.5C 3040.83,2312.5 3020.17,2312.5 2999.5,2312.5C 2978.83,2312.5 2958.17,2312.5 2937.5,2312.5C 2937.5,2353.83 2937.5,2395.17 2937.5,2436.5C 2958.17,2436.5 2978.83,2436.5 2999.5,2436.5C 2979.01,2437.5 2958.34,2437.83 2937.5,2437.5C 2937.83,2479 2937.5,2520.34 2936.5,2561.5C 2936.5,2520.17 2936.5,2478.83 2936.5,2437.5C 2915.83,2437.5 2895.17,2437.5 2874.5,2437.5C 2874.5,2437.17 2874.5,2436.83 2874.5,2436.5C 2895.17,2436.5 2915.83,2436.5 2936.5,2436.5C 2936.5,2394.83 2936.5,2353.17 2936.5,2311.5 Z"/></g>
<g><path style="opacity:1" fill="#450072" d="M 2999.5,2312.5 C 2999.5,2333.17 2999.5,2353.83 2999.5,2374.5C 2999.5,2395.17 2999.5,2415.83 2999.5,2436.5C 2978.83,2436.5 2958.17,2436.5 2937.5,2436.5C 2937.5,2395.17 2937.5,2353.83 2937.5,2312.5C 2958.17,2312.5 2978.83,2312.5 2999.5,2312.5 Z"/></g>
<g><path style="opacity:1" fill="#044018" d="M 2999.5,2312.5 C 3020.17,2312.5 3040.83,2312.5 3061.5,2312.5C 3061.5,2333.17 3061.5,2353.83 3061.5,2374.5C 3040.83,2374.5 3020.17,2374.5 2999.5,2374.5C 2999.5,2353.83 2999.5,2333.17 2999.5,2312.5 Z"/></g>
<g><path style="opacity:0.992" fill="#044018" d="M 312.5,2374.5 C 353.833,2374.5 395.167,2374.5 436.5,2374.5C 436.5,2395.5 436.5,2416.5 436.5,2437.5C 395.167,2437.5 353.833,2437.5 312.5,2437.5C 312.5,2416.5 312.5,2395.5 312.5,2374.5 Z"/></g>
<g><path style="opacity:0.982" fill="#044018" d="M 3562.5,2374.5 C 3603.83,2374.5 3645.17,2374.5 3686.5,2374.5C 3686.5,2395.5 3686.5,2416.5 3686.5,2437.5C 3645.17,2437.5 3603.83,2437.5 3562.5,2437.5C 3562.5,2416.5 3562.5,2395.5 3562.5,2374.5 Z"/></g>
<g><path style="opacity:1" fill="#05521f" d="M 312.5,2374.5 C 312.5,2395.5 312.5,2416.5 312.5,2437.5C 291.5,2437.5 270.5,2437.5 249.5,2437.5C 269.993,2436.5 290.66,2436.17 311.5,2436.5C 311.169,2415.66 311.503,2394.99 312.5,2374.5 Z"/></g>
<g><path style="opacity:1" fill="#05521f" d="M 436.5,2374.5 C 437.497,2394.99 437.831,2415.66 437.5,2436.5C 458.167,2436.5 478.833,2436.5 499.5,2436.5C 499.5,2436.83 499.5,2437.17 499.5,2437.5C 478.5,2437.5 457.5,2437.5 436.5,2437.5C 436.5,2416.5 436.5,2395.5 436.5,2374.5 Z"/></g>
<g><path style="opacity:1" fill="#3b0062" d="M 1811.5,2374.5 C 1812.5,2394.99 1812.83,2415.66 1812.5,2436.5C 1937.17,2436.5 2061.83,2436.5 2186.5,2436.5C 2186.17,2415.66 2186.5,2394.99 2187.5,2374.5C 2187.5,2395.5 2187.5,2416.5 2187.5,2437.5C 2062.17,2437.5 1936.83,2437.5 1811.5,2437.5C 1811.5,2416.5 1811.5,2395.5 1811.5,2374.5 Z"/></g>
<g><path style="opacity:1" fill="#05521f" d="M 3562.5,2374.5 C 3562.5,2395.5 3562.5,2416.5 3562.5,2437.5C 3541.5,2437.5 3520.5,2437.5 3499.5,2437.5C 3499.5,2437.17 3499.5,2436.83 3499.5,2436.5C 3520.17,2436.5 3540.83,2436.5 3561.5,2436.5C 3561.17,2415.66 3561.5,2394.99 3562.5,2374.5 Z"/></g>
<g><path style="opacity:1" fill="#05521f" d="M 3686.5,2374.5 C 3687.5,2394.99 3687.83,2415.66 3687.5,2436.5C 3708.34,2436.17 3729.01,2436.5 3749.5,2437.5C 3728.5,2437.5 3707.5,2437.5 3686.5,2437.5C 3686.5,2416.5 3686.5,2395.5 3686.5,2374.5 Z"/></g>
<g><path style="opacity:0.992" fill="#044018" d="M 249.5,2437.5 C 270.5,2437.5 291.5,2437.5 312.5,2437.5C 312.5,2458.17 312.5,2478.83 312.5,2499.5C 291.5,2499.5 270.5,2499.5 249.5,2499.5C 249.5,2478.83 249.5,2458.17 249.5,2437.5 Z"/></g>
<g><path style="opacity:0.992" fill="#044018" d="M 436.5,2437.5 C 457.5,2437.5 478.5,2437.5 499.5,2437.5C 499.5,2458.17 499.5,2478.83 499.5,2499.5C 478.5,2499.5 457.5,2499.5 436.5,2499.5C 436.5,2478.83 436.5,2458.17 436.5,2437.5 Z"/></g>
<g><path style="opacity:1" fill="#320053" d="M 624.5,2436.5 C 624.5,2436.83 624.5,2437.17 624.5,2437.5C 624.5,2520.5 624.5,2603.5 624.5,2686.5C 624.5,2686.83 624.5,2687.17 624.5,2687.5C 624.5,2708.17 624.5,2728.83 624.5,2749.5C 603.833,2749.5 583.167,2749.5 562.5,2749.5C 561.334,2645.67 561.167,2541.67 562,2437.5C 582.758,2436.51 603.591,2436.17 624.5,2436.5 Z"/></g>
<g><path style="opacity:1" fill="#450073" d="M 1124.5,2437.5 C 1124.5,2478.83 1124.5,2520.17 1124.5,2561.5C 1103.83,2561.5 1083.17,2561.5 1062.5,2561.5C 1062.5,2520.17 1062.5,2478.83 1062.5,2437.5C 1083.17,2437.5 1103.83,2437.5 1124.5,2437.5 Z"/></g>
<g><path style="opacity:1" fill="#310152" d="M 1124.5,2437.5 C 1145.17,2437.5 1165.83,2437.5 1186.5,2437.5C 1187.5,2478.66 1187.83,2520 1187.5,2561.5C 1166.5,2561.5 1145.5,2561.5 1124.5,2561.5C 1124.5,2520.17 1124.5,2478.83 1124.5,2437.5 Z"/></g>
<g><path style="opacity:1" fill="#310152" d="M 2812.5,2436.5 C 2833.17,2436.5 2853.83,2436.5 2874.5,2436.5C 2874.5,2436.83 2874.5,2437.17 2874.5,2437.5C 2874.5,2478.83 2874.5,2520.17 2874.5,2561.5C 2853.5,2561.5 2832.5,2561.5 2811.5,2561.5C 2811.17,2519.76 2811.51,2478.09 2812.5,2436.5 Z"/></g>
<g><path style="opacity:1" fill="#450072" d="M 2874.5,2437.5 C 2895.17,2437.5 2915.83,2437.5 2936.5,2437.5C 2936.5,2478.83 2936.5,2520.17 2936.5,2561.5C 2915.83,2561.5 2895.17,2561.5 2874.5,2561.5C 2874.5,2520.17 2874.5,2478.83 2874.5,2437.5 Z"/></g>
<g><path style="opacity:1" fill="#310052" d="M 3374.5,2437.5 C 3395.17,2437.5 3415.83,2437.5 3436.5,2437.5C 3436.5,2541.5 3436.5,2645.5 3436.5,2749.5C 3415.83,2749.5 3395.17,2749.5 3374.5,2749.5C 3374.5,2728.83 3374.5,2708.17 3374.5,2687.5C 3374.5,2687.17 3374.5,2686.83 3374.5,2686.5C 3374.5,2603.5 3374.5,2520.5 3374.5,2437.5 Z"/></g>
<g><path style="opacity:1" fill="#3b0063" d="M 3374.5,2437.5 C 3374.5,2437.17 3374.5,2436.83 3374.5,2436.5C 3395.5,2436.5 3416.5,2436.5 3437.5,2436.5C 3437.83,2541 3437.5,2645.33 3436.5,2749.5C 3436.5,2645.5 3436.5,2541.5 3436.5,2437.5C 3415.83,2437.5 3395.17,2437.5 3374.5,2437.5 Z"/></g>
<g><path style="opacity:0.982" fill="#044018" d="M 3499.5,2437.5 C 3520.5,2437.5 3541.5,2437.5 3562.5,2437.5C 3562.5,2458.17 3562.5,2478.83 3562.5,2499.5C 3541.5,2499.5 3520.5,2499.5 3499.5,2499.5C 3499.5,2478.83 3499.5,2458.17 3499.5,2437.5 Z"/></g>
<g><path style="opacity:0.982" fill="#044018" d="M 3686.5,2437.5 C 3707.5,2437.5 3728.5,2437.5 3749.5,2437.5C 3749.5,2458.17 3749.5,2478.83 3749.5,2499.5C 3728.5,2499.5 3707.5,2499.5 3686.5,2499.5C 3686.5,2478.83 3686.5,2458.17 3686.5,2437.5 Z"/></g>
<g><path style="opacity:0.992" fill="#044019" d="M 187.5,2499.5 C 208.167,2499.5 228.833,2499.5 249.5,2499.5C 249.5,2520.5 249.5,2541.5 249.5,2562.5C 228.833,2562.5 208.167,2562.5 187.5,2562.5C 187.5,2541.5 187.5,2520.5 187.5,2499.5 Z"/></g>
<g><path style="opacity:0.982" fill="#044018" d="M 3749.5,2499.5 C 3770.17,2499.5 3790.83,2499.5 3811.5,2499.5C 3811.5,2520.5 3811.5,2541.5 3811.5,2562.5C 3790.83,2562.5 3770.17,2562.5 3749.5,2562.5C 3749.5,2541.5 3749.5,2520.5 3749.5,2499.5 Z"/></g>
<g><path style="opacity:1" fill="#05521f" d="M 187.5,2499.5 C 187.5,2520.5 187.5,2541.5 187.5,2562.5C 166.5,2562.5 145.5,2562.5 124.5,2562.5C 124.5,2562.17 124.5,2561.83 124.5,2561.5C 145.167,2561.5 165.833,2561.5 186.5,2561.5C 186.169,2540.66 186.503,2519.99 187.5,2499.5 Z"/></g>
<g><path style="opacity:1" fill="#05521f" d="M 3811.5,2499.5 C 3812.5,2519.99 3812.83,2540.66 3812.5,2561.5C 3833.17,2561.5 3853.83,2561.5 3874.5,2561.5C 3874.5,2561.83 3874.5,2562.17 3874.5,2562.5C 3853.5,2562.5 3832.5,2562.5 3811.5,2562.5C 3811.5,2541.5 3811.5,2520.5 3811.5,2499.5 Z"/></g>
<g><path style="opacity:0.988" fill="#044019" d="M 124.5,2562.5 C 145.5,2562.5 166.5,2562.5 187.5,2562.5C 187.5,2604.17 187.5,2645.83 187.5,2687.5C 166.5,2687.5 145.5,2687.5 124.5,2687.5C 124.5,2645.83 124.5,2604.17 124.5,2562.5 Z"/></g>
<g><path style="opacity:1" fill="#450073" d="M 1124.5,2562.5 C 1145.17,2562.5 1165.83,2562.5 1186.5,2562.5C 1186.5,2603.83 1186.5,2645.17 1186.5,2686.5C 1165.83,2686.5 1145.17,2686.5 1124.5,2686.5C 1124.5,2665.83 1124.5,2645.17 1124.5,2624.5C 1124.5,2603.83 1124.5,2583.17 1124.5,2562.5 Z"/></g>
<g><path style="opacity:1" fill="#311d52" d="M 1062.5,2561.5 C 1083.17,2561.5 1103.83,2561.5 1124.5,2561.5C 1145.5,2561.5 1166.5,2561.5 1187.5,2561.5C 1208.34,2561.17 1229.01,2561.5 1249.5,2562.5C 1228.83,2562.5 1208.17,2562.5 1187.5,2562.5C 1187.5,2603.83 1187.5,2645.17 1187.5,2686.5C 1208.17,2686.5 1228.83,2686.5 1249.5,2686.5C 1270.34,2686.17 1291.01,2686.5 1311.5,2687.5C 1290.83,2687.5 1270.17,2687.5 1249.5,2687.5C 1228.83,2687.5 1208.17,2687.5 1187.5,2687.5C 1187.83,2708.34 1187.5,2729.01 1186.5,2749.5C 1186.5,2728.83 1186.5,2708.17 1186.5,2687.5C 1165.83,2687.5 1145.17,2687.5 1124.5,2687.5C 1124.5,2687.17 1124.5,2686.83 1124.5,2686.5C 1145.17,2686.5 1165.83,2686.5 1186.5,2686.5C 1186.5,2645.17 1186.5,2603.83 1186.5,2562.5C 1165.83,2562.5 1145.17,2562.5 1124.5,2562.5C 1103.66,2562.83 1082.99,2562.5 1062.5,2561.5 Z"/></g>
<g><path style="opacity:1" fill="#310052" d="M 1249.5,2562.5 C 1249.5,2603.83 1249.5,2645.17 1249.5,2686.5C 1228.83,2686.5 1208.17,2686.5 1187.5,2686.5C 1187.5,2645.17 1187.5,2603.83 1187.5,2562.5C 1208.17,2562.5 1228.83,2562.5 1249.5,2562.5 Z"/></g>
<g><path style="opacity:1" fill="#1b002e" d="M 1687.5,2562.5 C 1708.17,2562.5 1728.83,2562.5 1749.5,2562.5C 1749.5,2624.83 1749.5,2687.17 1749.5,2749.5C 1728.83,2749.5 1708.17,2749.5 1687.5,2749.5C 1687.5,2687.17 1687.5,2624.83 1687.5,2562.5 Z"/></g>
<g><path style="opacity:1" fill="#1b002e" d="M 2249.5,2562.5 C 2270.17,2562.5 2290.83,2562.5 2311.5,2562.5C 2311.5,2624.83 2311.5,2687.17 2311.5,2749.5C 2290.83,2749.5 2270.17,2749.5 2249.5,2749.5C 2249.5,2687.17 2249.5,2624.83 2249.5,2562.5 Z"/></g>
<g><path style="opacity:1" fill="#310052" d="M 2811.5,2562.5 C 2811.5,2603.83 2811.5,2645.17 2811.5,2686.5C 2790.83,2686.5 2770.17,2686.5 2749.5,2686.5C 2749.5,2645.17 2749.5,2603.83 2749.5,2562.5C 2770.17,2562.5 2790.83,2562.5 2811.5,2562.5 Z"/></g>
<g><path style="opacity:1" fill="#321955" d="M 2811.5,2561.5 C 2832.5,2561.5 2853.5,2561.5 2874.5,2561.5C 2895.17,2561.5 2915.83,2561.5 2936.5,2561.5C 2916.01,2562.5 2895.34,2562.83 2874.5,2562.5C 2853.83,2562.5 2833.17,2562.5 2812.5,2562.5C 2812.5,2603.83 2812.5,2645.17 2812.5,2686.5C 2833.17,2686.5 2853.83,2686.5 2874.5,2686.5C 2874.5,2686.83 2874.5,2687.17 2874.5,2687.5C 2853.83,2687.5 2833.17,2687.5 2812.5,2687.5C 2812.5,2708.17 2812.5,2728.83 2812.5,2749.5C 2811.5,2729.01 2811.17,2708.34 2811.5,2687.5C 2790.83,2687.5 2770.17,2687.5 2749.5,2687.5C 2728.83,2687.5 2708.17,2687.5 2687.5,2687.5C 2707.99,2686.5 2728.66,2686.17 2749.5,2686.5C 2770.17,2686.5 2790.83,2686.5 2811.5,2686.5C 2811.5,2645.17 2811.5,2603.83 2811.5,2562.5C 2811.5,2562.17 2811.5,2561.83 2811.5,2561.5 Z"/></g>
<g><path style="opacity:1" fill="#450072" d="M 2874.5,2562.5 C 2874.5,2583.17 2874.5,2603.83 2874.5,2624.5C 2874.5,2645.17 2874.5,2665.83 2874.5,2686.5C 2853.83,2686.5 2833.17,2686.5 2812.5,2686.5C 2812.5,2645.17 2812.5,2603.83 2812.5,2562.5C 2833.17,2562.5 2853.83,2562.5 2874.5,2562.5 Z"/></g>
<g><path style="opacity:0.973" fill="#044018" d="M 3811.5,2562.5 C 3832.5,2562.5 3853.5,2562.5 3874.5,2562.5C 3874.5,2604.17 3874.5,2645.83 3874.5,2687.5C 3853.5,2687.5 3832.5,2687.5 3811.5,2687.5C 3811.5,2645.83 3811.5,2604.17 3811.5,2562.5 Z"/></g>
<g><path style="opacity:0.993" fill="#044018" d="M 687.5,2624.5 C 833.167,2624.5 978.833,2624.5 1124.5,2624.5C 1124.5,2645.17 1124.5,2665.83 1124.5,2686.5C 1124.5,2686.83 1124.5,2687.17 1124.5,2687.5C 978.833,2687.5 833.167,2687.5 687.5,2687.5C 687.5,2666.5 687.5,2645.5 687.5,2624.5 Z"/></g>
<g><path style="opacity:0.982" fill="#044018" d="M 2874.5,2624.5 C 3020.17,2624.5 3165.83,2624.5 3311.5,2624.5C 3311.5,2645.5 3311.5,2666.5 3311.5,2687.5C 3165.83,2687.5 3020.17,2687.5 2874.5,2687.5C 2874.5,2687.17 2874.5,2686.83 2874.5,2686.5C 2874.5,2665.83 2874.5,2645.17 2874.5,2624.5 Z"/></g>
<g><path style="opacity:1" fill="#05521f" d="M 687.5,2624.5 C 687.5,2645.5 687.5,2666.5 687.5,2687.5C 666.5,2687.5 645.5,2687.5 624.5,2687.5C 624.5,2687.17 624.5,2686.83 624.5,2686.5C 645.167,2686.5 665.833,2686.5 686.5,2686.5C 686.169,2665.66 686.503,2644.99 687.5,2624.5 Z"/></g>
<g><path style="opacity:1" fill="#055320" d="M 1686.5,2686.5 C 1645.34,2687.5 1604,2687.83 1562.5,2687.5C 1562.5,2708.17 1562.5,2728.83 1562.5,2749.5C 1562.17,2749.5 1561.83,2749.5 1561.5,2749.5C 1561.5,2728.5 1561.5,2707.5 1561.5,2686.5C 1603.17,2686.5 1644.83,2686.5 1686.5,2686.5 Z"/></g>
<g><path style="opacity:1" fill="#055320" d="M 2312.5,2686.5 C 2354.17,2686.5 2395.83,2686.5 2437.5,2686.5C 2437.5,2707.5 2437.5,2728.5 2437.5,2749.5C 2437.17,2749.5 2436.83,2749.5 2436.5,2749.5C 2436.5,2728.83 2436.5,2708.17 2436.5,2687.5C 2395,2687.83 2353.66,2687.5 2312.5,2686.5 Z"/></g>
<g><path style="opacity:1" fill="#05521f" d="M 3311.5,2624.5 C 3312.5,2644.99 3312.83,2665.66 3312.5,2686.5C 3333.17,2686.5 3353.83,2686.5 3374.5,2686.5C 3374.5,2686.83 3374.5,2687.17 3374.5,2687.5C 3353.5,2687.5 3332.5,2687.5 3311.5,2687.5C 3311.5,2666.5 3311.5,2645.5 3311.5,2624.5 Z"/></g>
<g><path style="opacity:0.994" fill="#044018" d="M 624.5,2687.5 C 645.5,2687.5 666.5,2687.5 687.5,2687.5C 687.5,2708.17 687.5,2728.83 687.5,2749.5C 666.5,2749.5 645.5,2749.5 624.5,2749.5C 624.5,2728.83 624.5,2708.17 624.5,2687.5 Z"/></g>
<g><path style="opacity:1" fill="#044018" d="M 1124.5,2687.5 C 1145.17,2687.5 1165.83,2687.5 1186.5,2687.5C 1186.5,2708.17 1186.5,2728.83 1186.5,2749.5C 1165.83,2749.5 1145.17,2749.5 1124.5,2749.5C 1124.5,2728.83 1124.5,2708.17 1124.5,2687.5 Z"/></g>
<g><path style="opacity:0.992" fill="#450073" d="M 1249.5,2687.5 C 1249.5,2729.17 1249.5,2770.83 1249.5,2812.5C 1228.5,2812.5 1207.5,2812.5 1186.5,2812.5C 1186.5,2791.5 1186.5,2770.5 1186.5,2749.5C 1187.5,2729.01 1187.83,2708.34 1187.5,2687.5C 1208.17,2687.5 1228.83,2687.5 1249.5,2687.5 Z"/></g>
<g><path style="opacity:1" fill="#310052" d="M 1249.5,2687.5 C 1270.17,2687.5 1290.83,2687.5 1311.5,2687.5C 1312.5,2728.66 1312.83,2770 1312.5,2811.5C 1332.99,2812.5 1353.66,2812.83 1374.5,2812.5C 1374.5,2833.17 1374.5,2853.83 1374.5,2874.5C 1353.5,2874.5 1332.5,2874.5 1311.5,2874.5C 1311.5,2853.83 1311.5,2833.17 1311.5,2812.5C 1290.83,2812.5 1270.17,2812.5 1249.5,2812.5C 1249.5,2770.83 1249.5,2729.17 1249.5,2687.5 Z"/></g>
<g><path style="opacity:1" fill="#044019" d="M 1686.5,2562.5 C 1686.83,2562.5 1687.17,2562.5 1687.5,2562.5C 1687.5,2624.83 1687.5,2687.17 1687.5,2749.5C 1645.83,2749.5 1604.17,2749.5 1562.5,2749.5C 1562.5,2728.83 1562.5,2708.17 1562.5,2687.5C 1604,2687.83 1645.34,2687.5 1686.5,2686.5C 1686.5,2645.17 1686.5,2603.83 1686.5,2562.5 Z"/></g>
<g><path style="opacity:1" fill="#044019" d="M 2311.5,2562.5 C 2311.83,2562.5 2312.17,2562.5 2312.5,2562.5C 2312.5,2603.83 2312.5,2645.17 2312.5,2686.5C 2353.66,2687.5 2395,2687.83 2436.5,2687.5C 2436.5,2708.17 2436.5,2728.83 2436.5,2749.5C 2394.83,2749.5 2353.17,2749.5 2311.5,2749.5C 2311.5,2687.17 2311.5,2624.83 2311.5,2562.5 Z"/></g>
<g><path style="opacity:1" fill="#310052" d="M 2687.5,2687.5 C 2708.17,2687.5 2728.83,2687.5 2749.5,2687.5C 2749.5,2728.83 2749.5,2770.17 2749.5,2811.5C 2728.83,2811.5 2708.17,2811.5 2687.5,2811.5C 2687.5,2770.17 2687.5,2728.83 2687.5,2687.5 Z"/></g>
<g><path style="opacity:1" fill="#044018" d="M 2874.5,2687.5 C 2874.5,2708.17 2874.5,2728.83 2874.5,2749.5C 2853.83,2749.5 2833.17,2749.5 2812.5,2749.5C 2812.5,2728.83 2812.5,2708.17 2812.5,2687.5C 2833.17,2687.5 2853.83,2687.5 2874.5,2687.5 Z"/></g>
<g><path style="opacity:0.982" fill="#044018" d="M 3311.5,2687.5 C 3332.5,2687.5 3353.5,2687.5 3374.5,2687.5C 3374.5,2708.17 3374.5,2728.83 3374.5,2749.5C 3353.5,2749.5 3332.5,2749.5 3311.5,2749.5C 3311.5,2728.83 3311.5,2708.17 3311.5,2687.5 Z"/></g>
<g><path style="opacity:0.993" fill="#044019" d="M 1561.5,2749.5 C 1561.83,2749.5 1562.17,2749.5 1562.5,2749.5C 1562.5,2770.5 1562.5,2791.5 1562.5,2812.5C 1499.83,2812.5 1437.17,2812.5 1374.5,2812.5C 1353.66,2812.83 1332.99,2812.5 1312.5,2811.5C 1333.17,2811.5 1353.83,2811.5 1374.5,2811.5C 1374.5,2790.83 1374.5,2770.17 1374.5,2749.5C 1436.83,2749.5 1499.17,2749.5 1561.5,2749.5 Z"/></g>
<g><path style="opacity:0.997" fill="#1b002e" d="M 1749.5,2749.5 C 1770.17,2749.5 1790.83,2749.5 1811.5,2749.5C 1811.5,2812.17 1811.5,2874.83 1811.5,2937.5C 1832.5,2937.5 1853.5,2937.5 1874.5,2937.5C 1874.5,2958.17 1874.5,2978.83 1874.5,2999.5C 1853.83,2999.5 1833.17,2999.5 1812.5,2999.5C 1812.5,3020.5 1812.5,3041.5 1812.5,3062.5C 1791.5,3062.5 1770.5,3062.5 1749.5,3062.5C 1749.5,2958.17 1749.5,2853.83 1749.5,2749.5 Z"/></g>
<g><path style="opacity:1" fill="#260040" d="M 1811.5,2749.5 C 1812.5,2811.66 1812.83,2874 1812.5,2936.5C 1833.17,2936.5 1853.83,2936.5 1874.5,2936.5C 1874.5,2936.83 1874.5,2937.17 1874.5,2937.5C 1853.5,2937.5 1832.5,2937.5 1811.5,2937.5C 1811.5,2874.83 1811.5,2812.17 1811.5,2749.5 Z"/></g>
<g><path style="opacity:1" fill="#250040" d="M 2187.5,2749.5 C 2187.5,2812.17 2187.5,2874.83 2187.5,2937.5C 2166.5,2937.5 2145.5,2937.5 2124.5,2937.5C 2124.5,2937.17 2124.5,2936.83 2124.5,2936.5C 2145.17,2936.5 2165.83,2936.5 2186.5,2936.5C 2186.17,2874 2186.5,2811.66 2187.5,2749.5 Z"/></g>
<g><path style="opacity:0.997" fill="#1b002e" d="M 2187.5,2749.5 C 2208.17,2749.5 2228.83,2749.5 2249.5,2749.5C 2249.5,2853.83 2249.5,2958.17 2249.5,3062.5C 2228.5,3062.5 2207.5,3062.5 2186.5,3062.5C 2186.5,3041.5 2186.5,3020.5 2186.5,2999.5C 2165.83,2999.5 2145.17,2999.5 2124.5,2999.5C 2124.5,2978.83 2124.5,2958.17 2124.5,2937.5C 2145.5,2937.5 2166.5,2937.5 2187.5,2937.5C 2187.5,2874.83 2187.5,2812.17 2187.5,2749.5 Z"/></g>
<g><path style="opacity:0.976" fill="#044018" d="M 2436.5,2749.5 C 2436.83,2749.5 2437.17,2749.5 2437.5,2749.5C 2499.83,2749.5 2562.17,2749.5 2624.5,2749.5C 2624.5,2770.17 2624.5,2790.83 2624.5,2811.5C 2645.17,2811.5 2665.83,2811.5 2686.5,2811.5C 2686.5,2811.83 2686.5,2812.17 2686.5,2812.5C 2665.83,2812.5 2645.17,2812.5 2624.5,2812.5C 2561.83,2812.5 2499.17,2812.5 2436.5,2812.5C 2436.5,2791.5 2436.5,2770.5 2436.5,2749.5 Z"/></g>
<g><path style="opacity:1" fill="#450073" d="M 1249.5,2812.5 C 1270.17,2812.5 1290.83,2812.5 1311.5,2812.5C 1311.5,2833.17 1311.5,2853.83 1311.5,2874.5C 1290.83,2874.5 1270.17,2874.5 1249.5,2874.5C 1249.5,2853.83 1249.5,2833.17 1249.5,2812.5 Z"/></g>
<g><path style="opacity:1" fill="#1b002e" d="M 2061.5,2874.5 C 2020.17,2874.5 1978.83,2874.5 1937.5,2874.5C 1937.5,2853.83 1937.5,2833.17 1937.5,2812.5C 1978.83,2812.5 2020.17,2812.5 2061.5,2812.5C 2061.5,2833.17 2061.5,2853.83 2061.5,2874.5 Z"/></g>
<g><path style="opacity:1" fill="#310052" d="M 2624.5,2812.5 C 2645.17,2812.5 2665.83,2812.5 2686.5,2812.5C 2686.5,2833.17 2686.5,2853.83 2686.5,2874.5C 2665.83,2874.5 2645.17,2874.5 2624.5,2874.5C 2624.5,2853.83 2624.5,2833.17 2624.5,2812.5 Z"/></g>
<g><path style="opacity:0.984" fill="#450073" d="M 1311.5,2874.5 C 1332.5,2874.5 1353.5,2874.5 1374.5,2874.5C 1374.5,2895.5 1374.5,2916.5 1374.5,2937.5C 1353.5,2937.5 1332.5,2937.5 1311.5,2937.5C 1311.5,2916.5 1311.5,2895.5 1311.5,2874.5 Z"/></g>
<g><path style="opacity:0.984" fill="#1b002e" d="M 1937.5,2874.5 C 1937.5,2895.5 1937.5,2916.5 1937.5,2937.5C 1916.5,2937.5 1895.5,2937.5 1874.5,2937.5C 1874.5,2937.17 1874.5,2936.83 1874.5,2936.5C 1874.5,2915.83 1874.5,2895.17 1874.5,2874.5C 1895.5,2874.5 1916.5,2874.5 1937.5,2874.5 Z"/></g>
<g><path style="opacity:0.984" fill="#1b002e" d="M 2061.5,2874.5 C 2082.5,2874.5 2103.5,2874.5 2124.5,2874.5C 2124.5,2895.17 2124.5,2915.83 2124.5,2936.5C 2124.5,2936.83 2124.5,2937.17 2124.5,2937.5C 2103.5,2937.5 2082.5,2937.5 2061.5,2937.5C 2061.5,2916.5 2061.5,2895.5 2061.5,2874.5 Z"/></g>
<g><path style="opacity:0.984" fill="#450072" d="M 2749.5,2687.5 C 2770.17,2687.5 2790.83,2687.5 2811.5,2687.5C 2811.17,2708.34 2811.5,2729.01 2812.5,2749.5C 2812.5,2770.5 2812.5,2791.5 2812.5,2812.5C 2791.5,2812.5 2770.5,2812.5 2749.5,2812.5C 2749.5,2833.17 2749.5,2853.83 2749.5,2874.5C 2728.83,2874.5 2708.17,2874.5 2687.5,2874.5C 2687.5,2895.5 2687.5,2916.5 2687.5,2937.5C 2666.5,2937.5 2645.5,2937.5 2624.5,2937.5C 2624.5,2916.5 2624.5,2895.5 2624.5,2874.5C 2645.17,2874.5 2665.83,2874.5 2686.5,2874.5C 2686.5,2853.83 2686.5,2833.17 2686.5,2812.5C 2686.5,2812.17 2686.5,2811.83 2686.5,2811.5C 2686.83,2811.5 2687.17,2811.5 2687.5,2811.5C 2708.17,2811.5 2728.83,2811.5 2749.5,2811.5C 2749.5,2770.17 2749.5,2728.83 2749.5,2687.5 Z"/></g>
</svg>
