<?xml version="1.0" encoding="UTF-8"?>
<!DOCTYPE svg PUBLIC "-//W3C//DTD SVG 1.1//EN" "http://www.w3.org/Graphics/SVG/1.1/DTD/svg11.dtd">
<svg xmlns="http://www.w3.org/2000/svg" version="1.1" width="32px" height="32px" style="shape-rendering:geometricPrecision; text-rendering:geometricPrecision; image-rendering:optimizeQuality; fill-rule:evenodd; clip-rule:evenodd" xmlns:xlink="http://www.w3.org/1999/xlink">
<g><path style="opacity:1" fill="#000000" d="M 13.5,2.5 C 13.2627,3.79105 13.596,4.79105 14.5,5.5C 14.6602,7.19919 14.4935,8.86586 14,10.5C 12.669,8.00383 10.8356,6.00383 8.5,4.5C 9.93033,3.46253 11.597,2.79586 13.5,2.5 Z"/></g>
<g><path style="opacity:1" fill="#415e5e" d="M 13.5,2.5 C 14.8333,2.5 16.1667,2.5 17.5,2.5C 17.7373,3.79105 17.404,4.79105 16.5,5.5C 15.8333,5.5 15.1667,5.5 14.5,5.5C 13.596,4.79105 13.2627,3.79105 13.5,2.5 Z"/></g>
<g><path style="opacity:1" fill="#000000" d="M 17.5,2.5 C 19.403,2.79586 21.0697,3.46253 22.5,4.5C 20.1644,6.00383 18.331,8.00383 17,10.5C 16.5065,8.86586 16.3398,7.19919 16.5,5.5C 17.404,4.79105 17.7373,3.79105 17.5,2.5 Z"/></g>
<g><path style="opacity:1" fill="#a7fefe" d="M 7.5,5.5 C 7.5,4.83333 7.83333,4.5 8.5,4.5C 10.8356,6.00383 12.669,8.00383 14,10.5C 14.4935,8.86586 14.6602,7.19919 14.5,5.5C 15.1667,5.5 15.8333,5.5 16.5,5.5C 16.3398,7.19919 16.5065,8.86586 17,10.5C 18.331,8.00383 20.1644,6.00383 22.5,4.5C 23.1667,4.5 23.5,4.83333 23.5,5.5C 20.4625,7.35646 18.7958,9.68979 18.5,12.5C 16.5,13.8333 14.5,13.8333 12.5,12.5C 12.2042,9.68979 10.5375,7.35646 7.5,5.5 Z"/></g>
<g><path style="opacity:1" fill="#000000" d="M 7.5,5.5 C 10.5375,7.35646 12.2042,9.68979 12.5,12.5C 9.83333,12.1667 7.16667,11.8333 4.5,11.5C 4.5,13.5 4.5,15.5 4.5,17.5C 11.8333,17.5 19.1667,17.5 26.5,17.5C 26.5,15.5 26.5,13.5 26.5,11.5C 23.8333,11.8333 21.1667,12.1667 18.5,12.5C 18.7958,9.68979 20.4625,7.35646 23.5,5.5C 29.5205,10.2103 31.0205,16.2103 28,23.5C 19.6667,32.8333 11.3333,32.8333 3,23.5C -0.0204654,16.2103 1.47953,10.2103 7.5,5.5 Z"/></g>
<g><path style="opacity:1" fill="#f6d29c" d="M 12.5,12.5 C 14.5,13.8333 16.5,13.8333 18.5,12.5C 21.1667,12.1667 23.8333,11.8333 26.5,11.5C 26.5,13.5 26.5,15.5 26.5,17.5C 19.1667,17.5 11.8333,17.5 4.5,17.5C 4.5,15.5 4.5,13.5 4.5,11.5C 7.16667,11.8333 9.83333,12.1667 12.5,12.5 Z"/></g>
<g><path style="opacity:1" fill="#06500c" d="M 9.5,14.5 C 11.337,14.6395 11.6704,15.3061 10.5,16.5C 9.70245,16.0431 9.36912,15.3764 9.5,14.5 Z"/></g>
<g><path style="opacity:1" fill="#06500b" d="M 19.5,14.5 C 21.337,14.6395 21.6704,15.3061 20.5,16.5C 19.7025,16.0431 19.3691,15.3764 19.5,14.5 Z"/></g>
</svg>
