<svg xmlns="http://www.w3.org/2000/svg" width="160" height="160" viewBox="0 0 160 160" version="1.1"><path d="M 100 5 L 100 10 95 10 L 90 10 90 15 L 90 20 85 20 L 80 20 80 15 L 80 10 60 10 L 40 10 40 15 L 40 20 20 20 L 0 20 0 35 L 0 50 5 50 L 10 50 10 60 L 10 70 5 70 L 0 70 0 100 L 0 130 5 130 L 10 130 10 135 L 10 140 40 140 L 70 140 70 145 L 70 150 100 150 L 130 150 130 145 L 130 140 140 140 L 150 140 150 120 L 150 100 154.973 100 L 159.947 100 160.252 114.750 C 160.451 124.340, 160.634 120.579, 160.775 104 C 160.895 89.975, 160.699 72.088, 160.341 64.250 L 159.689 50 154.844 50 L 150 50 150 35 L 150 20 135 20 L 120 20 120 15 L 120 10 115 10 L 110 10 110 5 L 110 0 105 0 L 100 0 100 5 M 100 20 L 100 30 85 30 L 70 30 70 25 L 70 20 60 20 L 50 20 50 25 L 50 30 30 30 L 10 30 10 35 L 10 40 15 40 L 20 40 20 55 L 20 70 15 70 L 10 70 10 100 L 10 130 45 130 L 80 130 80 135 L 80 140 100 140 L 120 140 120 135 L 120 130 130 130 L 140 130 140 115 L 140 100 145 100 L 150 100 150 80 L 150 60 145 60 L 140 60 140 45 L 140 30 125 30 L 110 30 110 20 L 110 10 105 10 L 100 10 100 20 M 0.444 100 C 0.444 116.775, 0.581 123.637, 0.748 115.250 C 0.915 106.862, 0.915 93.137, 0.748 84.750 C 0.581 76.362, 0.444 83.225, 0.444 100" stroke="none" fill="#4e733d" fill-rule="evenodd"/><path d="M 100 15 L 100 20 105 20 L 110 20 110 15 L 110 10 105 10 L 100 10 100 15 M 50 25 L 50 30 40 30 L 30 30 30 35 L 30 40 25 40 L 20 40 20 35 L 20 30 15 30 L 10 30 10 35 L 10 40 15 40 L 20 40 20 55 L 20 70 15 70 L 10 70 10 75 L 10 80 15 80 L 20 80 20 75 L 20 70 25 70 L 30 70 30 55 L 30 40 35 40 L 40 40 40 45 L 40 50 55 50 L 70 50 70 55 L 70 60 75 60 L 80 60 80 70 L 80 80 85 80 L 90 80 90 65 L 90 50 85 50 L 80 50 80 45 L 80 40 90 40 L 100 40 100 35 L 100 30 85 30 L 70 30 70 25 L 70 20 60 20 L 50 20 50 25 M 50 35 L 50 40 60 40 L 70 40 70 35 L 70 30 60 30 L 50 30 50 35 M 110 35 L 110 40 115 40 L 120 40 120 45 L 120 50 130 50 L 140 50 140 40 L 140 30 125 30 L 110 30 110 35 M 140 65 L 140 70 145 70 L 150 70 150 65 L 150 60 145 60 L 140 60 140 65 M 10 110 L 10 130 45 130 L 80 130 80 135 L 80 140 100 140 L 120 140 120 135 L 120 130 130 130 L 140 130 140 125 L 140 120 130 120 L 120 120 120 125 L 120 130 110 130 L 100 130 100 125 L 100 120 95 120 L 90 120 90 110 L 90 100 85 100 L 80 100 80 110 L 80 120 60 120 L 40 120 40 115 L 40 110 35 110 L 30 110 30 115 L 30 120 25 120 L 20 120 20 105 L 20 90 15 90 L 10 90 10 110" stroke="none" fill="#468e21" fill-rule="evenodd"/><path d="M 100 30 L 100 40 90 40 L 80 40 80 45 L 80 50 85 50 L 90 50 90 55 L 90 60 95 60 L 100 60 100 55 L 100 50 110 50 L 120 50 120 45 L 120 40 115 40 L 110 40 110 30 L 110 20 105 20 L 100 20 100 30 M 20 35 L 20 40 25 40 L 30 40 30 45 L 30 50 35 50 L 40 50 40 45 L 40 40 35 40 L 30 40 30 35 L 30 30 25 30 L 20 30 20 35 M 50 35 L 50 40 60 40 L 70 40 70 35 L 70 30 60 30 L 50 30 50 35 M 90 110 L 90 120 95 120 L 100 120 100 125 L 100 130 110 130 L 120 130 120 125 L 120 120 110 120 L 100 120 100 110 L 100 100 95 100 L 90 100 90 110 M 20 115 L 20 120 25 120 L 30 120 30 115 L 30 110 25 110 L 20 110 20 115 M 70 115 L 70 120 75 120 L 80 120 80 115 L 80 110 75 110 L 70 110 70 115 M 130 115 L 130 120 135 120 L 140 120 140 115 L 140 110 135 110 L 130 110 130 115" stroke="none" fill="#61bb31" fill-rule="evenodd"/><path d="M 30 55 L 30 60 50 60 L 70 60 70 65 L 70 70 75 70 L 80 70 80 65 L 80 60 75 60 L 70 60 70 55 L 70 50 50 50 L 30 50 30 55 M 100 55 L 100 60 95 60 L 90 60 90 65 L 90 70 95 70 L 100 70 100 65 L 100 60 120 60 L 140 60 140 55 L 140 50 120 50 L 100 50 100 55 M 10 85 L 10 90 15 90 L 20 90 20 85 L 20 80 15 80 L 10 80 10 85 M 140 95 L 140 100 145 100 L 150 100 150 95 L 150 90 145 90 L 140 90 140 95 M 20 105 L 20 110 25 110 L 30 110 30 105 L 30 100 25 100 L 20 100 20 105 M 70 105 L 70 110 55 110 L 40 110 40 115 L 40 120 55 120 L 70 120 70 115 L 70 110 75 110 L 80 110 80 105 L 80 100 75 100 L 70 100 70 105 M 100 115 L 100 120 115 120 L 130 120 130 115 L 130 110 115 110 L 100 110 100 115" stroke="none" fill="#f2ca9a" fill-rule="evenodd"/><path d="M 30 65 L 30 70 25 70 L 20 70 20 85 L 20 100 25 100 L 30 100 30 105 L 30 110 50 110 L 70 110 70 105 L 70 100 85 100 L 100 100 100 105 L 100 110 120 110 L 140 110 140 100 L 140 90 145 90 L 150 90 150 80 L 150 70 145 70 L 140 70 140 65 L 140 60 120 60 L 100 60 100 65 L 100 70 95 70 L 90 70 90 75 L 90 80 85 80 L 80 80 80 75 L 80 70 75 70 L 70 70 70 65 L 70 60 50 60 L 30 60 30 65 M 30 85 L 30 100 45 100 L 60 100 60 95 L 60 90 65 90 L 70 90 70 80 L 70 70 50 70 L 30 70 30 85 M 100 85 L 100 100 115 100 L 130 100 130 95 L 130 90 135 90 L 140 90 140 80 L 140 70 120 70 L 100 70 100 85" stroke="none" fill="#161717" fill-rule="evenodd"/><path d="M 50 75 L 50 80 45 80 L 40 80 40 85 L 40 90 35 90 L 30 90 30 95 L 30 100 45 100 L 60 100 60 95 L 60 90 65 90 L 70 90 70 80 L 70 70 60 70 L 50 70 50 75 M 120 75 L 120 80 115 80 L 110 80 110 85 L 110 90 105 90 L 100 90 100 95 L 100 100 115 100 L 130 100 130 95 L 130 90 135 90 L 140 90 140 80 L 140 70 130 70 L 120 70 120 75" stroke="none" fill="#686d66" fill-rule="evenodd"/><path d="M 30 80 L 30 90 35 90 L 40 90 40 85 L 40 80 45 80 L 50 80 50 75 L 50 70 40 70 L 30 70 30 80 M 100 80 L 100 90 105 90 L 110 90 110 85 L 110 80 115 80 L 120 80 120 75 L 120 70 110 70 L 100 70 100 80" stroke="none" fill="#b5b4b4" fill-rule="evenodd"/></svg>