<svg xmlns="http://www.w3.org/2000/svg" width="160" height="160" viewBox="0 0 160 160" version="1.1"><path d="M 50 15 L 50 20 45 20 L 40 20 40 25 L 40 30 35 30 L 30 30 30 40 L 30 50 25 50 L 20 50 20 55 L 20 60 15 60 L 10 60 10 65 L 10 70 15 70 L 20 70 20 85 L 20 100 15 100 L 10 100 10 115 L 10 130 15 130 L 20 130 20 140 L 20 150 25 150 L 30 150 30 155 L 30 160 80 160 L 130 160 130 155 L 130 150 135 150 L 140 150 140 140 L 140 130 145 130 L 150 130 150 115 L 150 100 145 100 L 140 100 140 85 L 140 70 145 70 L 150 70 150 65 L 150 60 145 60 L 140 60 140 55 L 140 50 135 50 L 130 50 130 40 L 130 30 125 30 L 120 30 120 25 L 120 20 115 20 L 110 20 110 15 L 110 10 100 10 L 90 10 90 15 L 90 20 80 20 L 70 20 70 15 L 70 10 60 10 L 50 10 50 15 M 50 25 L 50 30 45 30 L 40 30 40 40 L 40 50 35 50 L 30 50 30 55 L 30 60 25 60 L 20 60 20 65 L 20 70 25 70 L 30 70 30 85 L 30 100 25 100 L 20 100 20 115 L 20 130 25 130 L 30 130 30 140 L 30 150 80 150 L 130 150 130 140 L 130 130 135 130 L 140 130 140 115 L 140 100 135 100 L 130 100 130 85 L 130 70 135 70 L 140 70 140 65 L 140 60 135 60 L 130 60 130 55 L 130 50 125 50 L 120 50 120 40 L 120 30 115 30 L 110 30 110 25 L 110 20 100 20 L 90 20 90 25 L 90 30 80 30 L 70 30 70 25 L 70 20 60 20 L 50 20 50 25 M 40 75 L 40 80 45 80 L 50 80 50 85 L 50 90 55 90 L 60 90 60 95 L 60 100 65 100 L 70 100 70 95 L 70 90 65 90 L 60 90 60 85 L 60 80 55 80 L 50 80 50 75 L 50 70 45 70 L 40 70 40 75 M 110 75 L 110 80 105 80 L 100 80 100 85 L 100 90 95 90 L 90 90 90 95 L 90 100 95 100 L 100 100 100 95 L 100 90 105 90 L 110 90 110 85 L 110 80 115 80 L 120 80 120 75 L 120 70 115 70 L 110 70 110 75" stroke="none" fill="#010001" fill-rule="evenodd"/><path d="M 50 25 L 50 30 45 30 L 40 30 40 40 L 40 50 80 50 L 120 50 120 40 L 120 30 115 30 L 110 30 110 25 L 110 20 100 20 L 90 20 90 25 L 90 30 80 30 L 70 30 70 25 L 70 20 60 20 L 50 20 50 25 M 20 65 L 20 70 80 70 L 140 70 140 65 L 140 60 80 60 L 20 60 20 65" stroke="none" fill="#ffd19e" fill-rule="evenodd"/><path d="M 30 55 L 30 60 80 60 L 130 60 130 55 L 130 50 80 50 L 30 50 30 55" stroke="none" fill="#5d0101" fill-rule="evenodd"/><path d="M 30 90 L 30 100 25 100 L 20 100 20 115 L 20 130 25 130 L 30 130 30 140 L 30 150 80 150 L 130 150 130 140 L 130 130 135 130 L 140 130 140 115 L 140 100 135 100 L 130 100 130 90 L 130 80 120 80 L 110 80 110 85 L 110 90 105 90 L 100 90 100 95 L 100 100 95 100 L 90 100 90 95 L 90 90 80 90 L 70 90 70 95 L 70 100 65 100 L 60 100 60 95 L 60 90 55 90 L 50 90 50 85 L 50 80 40 80 L 30 80 30 90 M 40 100 L 40 110 45 110 L 50 110 50 100 L 50 90 45 90 L 40 90 40 100 M 110 100 L 110 110 115 110 L 120 110 120 100 L 120 90 115 90 L 110 90 110 100 M 70 115 L 70 120 80 120 L 90 120 90 115 L 90 110 80 110 L 70 110 70 115 M 50 125 L 50 130 55 130 L 60 130 60 135 L 60 140 80 140 L 100 140 100 135 L 100 130 105 130 L 110 130 110 125 L 110 120 105 120 L 100 120 100 125 L 100 130 80 130 L 60 130 60 125 L 60 120 55 120 L 50 120 50 125" stroke="none" fill="#f1c6c6" fill-rule="evenodd"/><path d="M 30 75 L 30 80 35 80 L 40 80 40 75 L 40 70 35 70 L 30 70 30 75 M 50 75 L 50 80 55 80 L 60 80 60 85 L 60 90 80 90 L 100 90 100 85 L 100 80 105 80 L 110 80 110 75 L 110 70 80 70 L 50 70 50 75 M 120 75 L 120 80 125 80 L 130 80 130 75 L 130 70 125 70 L 120 70 120 75 M 70 115 L 70 120 80 120 L 90 120 90 115 L 90 110 80 110 L 70 110 70 115" stroke="none" fill="#b69392" fill-rule="evenodd"/><path d="M 50 125 L 50 130 55 130 L 60 130 60 135 L 60 140 80 140 L 100 140 100 135 L 100 130 105 130 L 110 130 110 125 L 110 120 105 120 L 100 120 100 125 L 100 130 80 130 L 60 130 60 125 L 60 120 55 120 L 50 120 50 125" stroke="none" fill="#47474c" fill-rule="evenodd"/><path d="M 40 100 L 40 110 45 110 L 50 110 50 100 L 50 90 45 90 L 40 90 40 100 M 110 100 L 110 110 115 110 L 120 110 120 100 L 120 90 115 90 L 110 90 110 100" stroke="none" fill="#4f733c" fill-rule="evenodd"/></svg>