<svg xmlns="http://www.w3.org/2000/svg" width="160" height="160" viewBox="0 0 160 160" version="1.1"><path d="M 40 5 L 40 10 30 10 L 20 10 20 15 L 20 20 15 20 L 10 20 10 55 L 10 90 15 90 L 20 90 20 95 L 20 100 25 100 L 30 100 30 110 L 30 120 40 120 L 50 120 50 125 L 50 130 55 130 L 60 130 60 140 L 60 150 80 150 L 100 150 100 140 L 100 130 105 130 L 110 130 110 125 L 110 120 120 120 L 130 120 130 110 L 130 100 135 100 L 140 100 140 95 L 140 90 145 90 L 150 90 150 55 L 150 20 145 20 L 140 20 140 15 L 140 10 130 10 L 120 10 120 5 L 120 0 80 0 L 40 0 40 5 M 30 30 L 30 40 35 40 L 40 40 40 45 L 40 50 35 50 L 30 50 30 65 L 30 80 35 80 L 40 80 40 85 L 40 90 45 90 L 50 90 50 95 L 50 100 55 100 L 60 100 60 105 L 60 110 80 110 L 100 110 100 105 L 100 100 105 100 L 110 100 110 95 L 110 90 115 90 L 120 90 120 85 L 120 80 125 80 L 130 80 130 65 L 130 50 125 50 L 120 50 120 45 L 120 40 125 40 L 130 40 130 30 L 130 20 120 20 L 110 20 110 25 L 110 30 80 30 L 50 30 50 25 L 50 20 40 20 L 30 20 30 30" stroke="none" fill="#eb6503" fill-rule="evenodd"/><path d="M 40 35 L 40 40 45 40 L 50 40 50 35 L 50 30 45 30 L 40 30 40 35 M 110 35 L 110 40 115 40 L 120 40 120 35 L 120 30 115 30 L 110 30 110 35 M 60 75 L 60 80 55 80 L 50 80 50 85 L 50 90 55 90 L 60 90 60 95 L 60 100 80 100 L 100 100 100 95 L 100 90 105 90 L 110 90 110 85 L 110 80 105 80 L 100 80 100 75 L 100 70 95 70 L 90 70 90 75 L 90 80 80 80 L 70 80 70 75 L 70 70 65 70 L 60 70 60 75" stroke="none" fill="#ffffff" fill-rule="evenodd"/><path d="M 70 75 L 70 80 80 80 L 90 80 90 75 L 90 70 80 70 L 70 70 70 75" stroke="none" fill="#c97495" fill-rule="evenodd"/><path d="M 10 95 L 10 100 15 100 L 20 100 20 110 L 20 120 25 120 L 30 120 30 125 L 30 130 40 130 L 50 130 50 140 L 50 150 55 150 L 60 150 60 155 L 60 160 80 160 L 100 160 100 155 L 100 150 105 150 L 110 150 110 140 L 110 130 120 130 L 130 130 130 125 L 130 120 135 120 L 140 120 140 110 L 140 100 145 100 L 150 100 150 95 L 150 90 145 90 L 140 90 140 95 L 140 100 135 100 L 130 100 130 110 L 130 120 120 120 L 110 120 110 125 L 110 130 105 130 L 100 130 100 140 L 100 150 80 150 L 60 150 60 140 L 60 130 55 130 L 50 130 50 125 L 50 120 40 120 L 30 120 30 110 L 30 100 25 100 L 20 100 20 95 L 20 90 15 90 L 10 90 10 95" stroke="none" fill="#8c3c02" fill-rule="evenodd"/><path d="M 50 95 L 50 100 55 100 L 60 100 60 105 L 60 110 80 110 L 100 110 100 105 L 100 100 105 100 L 110 100 110 95 L 110 90 105 90 L 100 90 100 95 L 100 100 80 100 L 60 100 60 95 L 60 90 55 90 L 50 90 50 95" stroke="none" fill="#9a9a9b" fill-rule="evenodd"/><path d="M 60 60 L 60 70 65 70 L 70 70 70 60 L 70 50 65 50 L 60 50 60 60 M 90 60 L 90 70 95 70 L 100 70 100 60 L 100 50 95 50 L 90 50 90 60" stroke="none" fill="#000101" fill-rule="evenodd"/><path d="M 30 30 L 30 40 35 40 L 40 40 40 45 L 40 50 35 50 L 30 50 30 65 L 30 80 35 80 L 40 80 40 85 L 40 90 45 90 L 50 90 50 85 L 50 80 55 80 L 60 80 60 65 L 60 50 65 50 L 70 50 70 60 L 70 70 80 70 L 90 70 90 60 L 90 50 95 50 L 100 50 100 65 L 100 80 105 80 L 110 80 110 85 L 110 90 115 90 L 120 90 120 85 L 120 80 125 80 L 130 80 130 65 L 130 50 125 50 L 120 50 120 45 L 120 40 125 40 L 130 40 130 30 L 130 20 120 20 L 110 20 110 25 L 110 30 80 30 L 50 30 50 25 L 50 20 40 20 L 30 20 30 30 M 40 35 L 40 40 45 40 L 50 40 50 35 L 50 30 45 30 L 40 30 40 35 M 110 35 L 110 40 115 40 L 120 40 120 35 L 120 30 115 30 L 110 30 110 35" stroke="none" fill="#febb54" fill-rule="evenodd"/></svg>